<?xml version="1.0" encoding="utf-8" ?>
<svg baseProfile="full" height="200mm" version="1.1" viewBox="0,0,200,200" width="200mm" xmlns="http://www.w3.org/2000/svg" xmlns:ev="http://www.w3.org/2001/xml-events" xmlns:xlink="http://www.w3.org/1999/xlink"><defs /><rect fill="#1a1a1a" height="200" width="200" x="0" y="0" /><rect fill="#1a1a1a" height="200" width="180" x="10" y="0" /><text alignment-baseline="middle" fill="#e1ed5e" style="dominant-baseline: central; font-size:9.0px; font-family:Arial;" text-anchor="middle" x="100.0" y="100.0">2022</text><line stroke="#e1ed5e" stroke-width="0.3" x1="100.0" x2="100.0" y1="15.0" y2="10.0" /><path d="M 100.0 14.0 a86.0,86.0 0 0,1 42.46469731375804,11.215312516191453" fill="none" id="id25" stroke="none" /><text fill="#e1ed5e" style="font-size:6.75px; font-family:Arial;" text-anchor="middle"><textPath startOffset="22.20632615414155" xlink:href="#id25">January</textPath></text><line stroke="#e1ed5e" stroke-width="0.3" x1="143.23703022742887" x2="145.7803849466894" y1="26.81831364943548" y2="22.513508569990506" /><path d="M 143.74570117128098 25.957352633546492 a86.0,86.0 0 0,1 28.547481713284135,27.462654790039103" fill="none" id="id26" stroke="none" /><text fill="#e1ed5e" style="font-size:6.75px; font-family:Arial;" text-anchor="middle"><textPath startOffset="19.985693538727396" xlink:href="#id26">February</textPath></text><path d="M 114.68862486808459 84.99185889309783 l 5.212396604439296 -5.325779945169488 a28.45204739560477,28.45204739560477 0 0,0 0.34706647403316715,0.3455760602963065 l -5.303298878639786 5.235268034223063" fill="red" stroke="none" /><path d="M 115.9244219780498 86.31012108654704 l 28.275619337117845 -24.307934408017836 a58.28788441413766,58.28788441413766 0 0,0 0.6475211807670475,0.7664608393341524 l -28.68985113137201 23.817614619054577" fill="red" stroke="none" /><line stroke="#e1ed5e" stroke-width="0.3" x1="172.23445277983987" x2="176.4835382374775" y1="55.19839476539836" y2="52.563006222186495" /><path d="M 173.08426987136738 54.67131705675599 a86.0,86.0 0 0,1 12.851231095245387,41.99856678651699" fill="none" id="id27" stroke="none" /><text fill="#e1ed5e" style="font-size:6.75px; font-family:Arial;" text-anchor="middle"><textPath startOffset="22.20632615414155" xlink:href="#id27">March</textPath></text><path d="M 119.196687751892 91.48605970444005 l 33.38278273135621 -14.805628072290956 a57.51871856327853,57.51871856327853 0 0,0 0.39361781978511334,0.9085241976058066 l -33.632691260984 14.228804730098545" fill="red" stroke="none" /><path d="M 119.47837535516314 92.15188598940014 l 23.551192320017478 -9.489109797037937 a46.39097998177092,46.39097998177092 0 0,0 0.2920565133761443,0.743251970415551 l -23.711042383275323 9.0823088217266" fill="red" stroke="none" /><path d="M 119.7369772167798 92.82701384747503 l 33.24697576603694 -12.082908854977413 a56.374540053336936,56.374540053336936 0 0,0 0.32360843448541726,0.9148846218707197 l -33.450037281332165 11.50882660668008" fill="red" stroke="none" /><path d="M 119.85752413597 93.16781622104841 l 30.827661613104286 -10.606571502765602 a53.60128953853425,53.60128953853425 0 0,0 0.2926699483719642,0.8750458938980157 l -31.00566885524802 10.074352505945273" fill="red" stroke="none" /><path d="M 119.97218684219823 93.5106431181261 l 30.63282953027298 -9.9532096657307 a53.2092630726125,53.2092630726125 0 0,0 0.2755340748514999,0.8735183137550496 l -30.799619088892683 9.424441185549231" fill="red" stroke="none" /><path d="M 120.08093135843002 93.85539295169968 l 28.88731083644927 -8.839289901639592 a51.20943186037876,51.20943186037876 0 0,0 0.2506679813098593,0.8451278192482503 l -29.03518471487083 8.340732695644812" fill="red" stroke="none" /><path d="M 120.37134235888165 94.90015583598534 l 28.213033508269877 -7.062964813586232 a50.08368497451305,50.08368497451305 0 0,0 0.2021644632337497,0.838102216807704 l -28.330430771764448 6.576277365119122" fill="red" stroke="none" /><path d="M 120.67395015179393 96.31383870115 l 31.580064286826982 -5.630719332038017 a53.07811497822638,53.07811497822638 0 0,0 0.1526327884547933,0.9008473575069463 l -31.672308936802 5.086286186215233" fill="red" stroke="none" /><path d="M 120.73433829027371 96.67025291283417 l 22.691372009330035 -3.6440289916223563 a43.982108496776156,43.982108496776156 0 0,0 0.11360810381254284,0.7485354578864545 l -22.750736006581878 3.25289442134382" fill="red" stroke="none" /><path d="M 120.94382443527127 98.46500227214037 l 30.893608092482648 -2.264229170460607 a51.97647098538299,51.97647098538299 0 0,0 0.05771717071691792,0.8928590847662867 l -30.92800585420398 1.7321110214412847" fill="red" stroke="none" /><line stroke="#e1ed5e" stroke-width="0.3" x1="184.98032266829074" x2="189.97916517819016" y1="98.17113171792111" y2="98.06355123074" /><path d="M 185.9800911702706 98.14961562048488 a86.0,86.0 0 0,1 -9.607161424134198,41.387399972396054" fill="none" id="id28" stroke="none" /><text fill="#e1ed5e" style="font-size:6.75px; font-family:Arial;" text-anchor="middle"><textPath startOffset="21.466115282336823" xlink:href="#id28">April</textPath></text><path d="M 120.95626037817324 101.35467743843564 l 28.440184306900733 1.838461411065376 a49.49954427303109,49.49954427303109 0 0,0 -0.0622832525828789,0.849805497218817 l -28.404324495653515 -2.3277400447809633" fill="red" stroke="none" /><path d="M 120.81339534386255 102.79330883721812 l 29.992985870398158 4.025276563587984 a51.26189109813321,51.26189109813321 0 0,0 -0.12489825260569627,0.8735380878244817 l -29.91925356677586 -4.540960123392876" fill="red" stroke="none" /><path d="M 120.49622156327973 104.57218783832717 l 25.8605400246141 5.7688314028058 a47.49616851770584,47.49616851770584 0 0,0 -0.1848719016716366,0.796423313854218 l -25.75740755701191 -6.213123374008584" fill="red" stroke="none" /><path d="M 120.32669344350535 105.2749913415812 l 29.102242255205375 7.552338817106374 a51.066232319481486,51.066232319481486 0 0,0 -0.2281248327556317,0.8489373672045162 l -28.96792934610797 -8.052167117486439" fill="red" stroke="none" /><line stroke="#e1ed5e" stroke-width="0.3" x1="174.80103733775053" x2="179.2010983576182" y1="140.37084112569926" y2="142.7455964860345" /><path d="M 175.68104954172406 140.8457921977663 a86.0,86.0 0 0,1 -30.038265399797805,32.042727171017184" fill="none" id="id29" stroke="none" /><text fill="#e1ed5e" style="font-size:6.75px; font-family:Arial;" text-anchor="middle"><textPath startOffset="22.206326154141568" xlink:href="#id29">May</textPath></text><path d="M 118.30583269289576 110.29060199501025 l 26.66497926268278 14.989686260159065 a51.58940687978935,51.58940687978935 0 0,0 -0.44182151652441964,0.770353055306783 l -26.40300575000598 -15.446459161324164" fill="red" stroke="none" /><path d="M 113.75828350139079 115.86535959552629 l 29.893137123181834 34.471260157541714 a66.62748539985822,66.62748539985822 0 0,0 -0.8729295924933206,0.7439295365258791 l -29.295342054111465 -34.98071408429054" fill="red" stroke="none" /><line stroke="#e1ed5e" stroke-width="0.3" x1="143.8653032363475" x2="146.44561519142675" y1="172.8068346515853" y2="177.08958963109032" /><path d="M 144.38136562736335 173.6633856474863 a86.0,86.0 0 0,1 -40.68145358897372,12.25698825130547" fill="none" id="id30" stroke="none" /><text fill="#e1ed5e" style="font-size:6.75px; font-family:Arial;" text-anchor="middle"><textPath startOffset="21.466115282336833" xlink:href="#id30">June</textPath></text><line stroke="#e1ed5e" stroke-width="0.3" x1="102.19456741930631" x2="102.32365962044197" y1="184.97166512339345" y2="189.96999836594603" /><path d="M 102.22038585953345 185.97133177190398 a86.0,86.0 0 0,1 -42.740103519485714,-10.115201625700543" fill="none" id="id31" stroke="none" /><text fill="#e1ed5e" style="font-size:6.75px; font-family:Arial;" text-anchor="middle"><textPath startOffset="22.20632615414155" xlink:href="#id31">July</textPath></text><path d="M 98.01472825383883 120.90594882070398 l -0.9024632661717719 9.503409743091508 a30.546163454072847,30.546163454072847 0 0,0 -0.523019270325814,-0.05421308586604076 l 1.065915133103179 -9.486467288769706" fill="red" stroke="none" /><path d="M 96.22490169976321 120.6578951692458 l -5.572357569326341 30.492763196517654 a51.99773824393209,51.99773824393209 0 0,0 -0.8790895736009434,-0.16847960903143544 l 6.096414757498979 -30.39232638913775" fill="red" stroke="none" /><path d="M 95.16358092515715 120.4354850818985 l -7.982385356217016 33.72824280539383 a55.65996016608716,55.65996016608716 0 0,0 -0.930440294648983,-0.22867958692481985 l 8.56177893560921 -33.58584196015499" fill="red" stroke="none" /><path d="M 94.81253420990036 120.34920634021253 l -15.562397370298923 61.0476190206376 a84.0,84.0 0 0,0 -1.398038228754043,-0.36923460278567344 l 16.610926041864456 -60.77069306854834" fill="red" stroke="none" /><path d="M 94.11515582081647 120.15858648285463 l -17.13206215334737 58.686032464466834 a82.1355703338622,82.1355703338622 0 0,0 -1.353770303865383,-0.4078798874075017 l 18.139707431652997 -58.38243720795361" fill="red" stroke="none" /><path d="M 91.40352486487194 119.15986991738527 l -14.398943498456731 32.09244254669759 a56.174627822975395,56.174627822975395 0 0,0 -0.8788172888429233,-0.4034219140417113 l 14.949228783067074 -31.8398335623218" fill="red" stroke="none" /><line stroke="#e1ed5e" stroke-width="0.3" x1="58.666819895761336" x2="56.23545636021788" y1="174.27360380694188" y2="178.64263932499728" /><path d="M 58.180547188652646 175.14741091055294 a86.0,86.0 0 0,1 -31.652253787137756,-30.449443065178592" fill="none" id="id32" stroke="none" /><text fill="#e1ed5e" style="font-size:6.75px; font-family:Arial;" text-anchor="middle"><textPath startOffset="22.20632615414155" xlink:href="#id32">August</textPath></text><path d="M 89.4739219176387 118.17145234162733 l -21.68465182642474 37.43479899402996 a64.26185734057997,64.26185734057997 0 0,0 -0.9523978415132902,-0.562693432135297 l 22.32581753896641 -37.05598698960092" fill="red" stroke="none" /><path d="M 86.24171649860922 115.8653595955263 l -24.493023621150602 28.244121244630016 a58.38500489484523,58.38500489484523 0 0,0 -0.7536048596349575,-0.6649686684932676 l 24.97557083369215 -27.818329434364458" fill="red" stroke="none" /><path d="M 85.70375840098266 115.38237550388516 l -30.9003057455991 33.24790665235658 a66.3900010127266,66.3900010127266 0 0,0 -0.8303940105143166,-0.7851893675220888 l 31.468035590504233 -32.71108264808856" fill="red" stroke="none" /><path d="M 85.18274418774928 114.88116024355367 l -28.949245430571622 29.074098850754883 a62.02879519292443,62.02879519292443 0 0,0 -0.7501330502739729,-0.7598808195383934 l 29.44541910590113 -28.571477537235825" fill="red" stroke="none" /><path d="M 84.67929136418377 114.36230785411682 l -19.25238426115719 18.048033955693175 a47.38912331634204,47.38912331634204 0 0,0 -0.5527683799176826,-0.5999209033197094 l 19.5601990490706 -17.71396179757212" fill="red" stroke="none" /><path d="M 83.95833913139862 113.55231037782056 l -19.520973263725583 16.491701870157506 a46.554737872599,46.554737872599 0 0,0 -0.5118892951757612,-0.6166036317753838 l 19.80195855879488 -16.15323698126836" fill="red" stroke="none" /><path d="M 83.50135304334701 112.99209946851258 l -24.493720955328133 19.287936752734243 a52.17638321574452,52.17638321574452 0 0,0 -0.5495742985495373,-0.7103988642362519 l 24.82210207109574 -18.863459894384736" fill="red" stroke="none" /><line stroke="#e1ed5e" stroke-width="0.3" x1="26.63291911575756" x2="22.317208475507996" y1="142.92168965132927" y2="145.44649492493687" /><path d="M 25.769776987707644 143.4266507060508 a86.0,86.0 0 0,1 -11.730757126820373,-40.83630448921669" fill="none" id="id33" stroke="none" /><text fill="#e1ed5e" style="font-size:6.75px; font-family:Arial;" text-anchor="middle"><textPath startOffset="21.46611528233685" xlink:href="#id33">September</textPath></text><line stroke="#e1ed5e" stroke-width="0.3" x1="15.007084014347285" x2="10.007500721073583" y1="101.09737516637583" y2="101.16192664675087" /><path d="M 14.007167355692545 101.11028546245083 a86.0,86.0 0 0,1 10.666146001902534,-42.60595125391555" fill="none" id="id34" stroke="none" /><text fill="#e1ed5e" style="font-size:6.75px; font-family:Arial;" text-anchor="middle"><textPath startOffset="22.20632615414155" xlink:href="#id34">October</textPath></text><path d="M 80.38941819471856 92.48833698450439 l -35.93232148084481 -13.763563621343929 a59.47814198426899,59.47814198426899 0 0,0 0.3744473338749025,-0.952927621788494 l 35.69008059708822 14.380040248028186" fill="red" stroke="none" /><line stroke="#e1ed5e" stroke-width="0.3" x1="26.266209847984243" x2="21.928928074336255" y1="57.711370442889674" y2="55.22380399835377" /><path d="M 25.398753493254645 57.213857153982495 a86.0,86.0 0 0,1 29.58750427330803,-30.492523968695096" fill="none" id="id35" stroke="none" /><text fill="#e1ed5e" style="font-size:6.75px; font-family:Arial;" text-anchor="middle"><textPath startOffset="21.46611528233685" xlink:href="#id35">November</textPath></text><path d="M 82.54541684631803 88.32363383020206 l -23.375106109770023 -15.636941644062183 a49.12311379671202,49.12311379671202 0 0,0 0.47620305424671056,-0.6987692217364821 l 23.10247858985457 16.03698888906908" fill="red" stroke="none" /><path d="M 82.7489923806493 88.02491185347247 l -17.801330078260555 -12.357104090168225 a42.669918644296665,42.669918644296665 0 0,0 0.42403207309809154,-0.5997632960378577 l 17.585985385358587 12.661693886537869" fill="red" stroke="none" /><path d="M 86.10567301691215 84.25364557470407 l -18.00779447934685 -20.40812157615323 a48.217128582520346,48.217128582520346 0 0,0 0.6270665155872482,-0.5437859031012054 l 17.65383416511283 20.715072472674116" fill="red" stroke="none" /><line stroke="#e1ed5e" stroke-width="0.3" x1="56.762969772571076" x2="54.21961505331055" y1="26.818313649435495" y2="22.513508569990535" /><path d="M 56.25429882871897 25.957352633546506 a86.0,86.0 0 0,1 42.265352541879196,-11.944610805530505" fill="none" id="id36" stroke="none" /><text fill="#e1ed5e" style="font-size:6.75px; font-family:Arial;" text-anchor="middle"><textPath startOffset="22.20632615414155" xlink:href="#id36">December</textPath></text></svg>