<?xml version="1.0" encoding="utf-8" ?>
<svg baseProfile="full" height="200mm" version="1.1" viewBox="0,0,200,200" width="200mm" xmlns="http://www.w3.org/2000/svg" xmlns:ev="http://www.w3.org/2001/xml-events" xmlns:xlink="http://www.w3.org/1999/xlink"><defs /><rect fill="#1a1a1a" height="200" width="200" x="0" y="0" /><rect fill="#1a1a1a" height="200" width="180" x="10" y="0" /><text alignment-baseline="middle" fill="#e1ed5e" style="dominant-baseline: central; font-size:9.0px; font-family:Arial;" text-anchor="middle" x="100.0" y="100.0">2022</text><line stroke="#e1ed5e" stroke-width="0.3" x1="100.0" x2="100.0" y1="15.0" y2="10.0" /><path d="M 100.0 14.0 a86.0,86.0 0 0,1 42.46469731375804,11.215312516191453" fill="none" id="id25" stroke="none" /><text fill="#e1ed5e" style="font-size:6.75px; font-family:Arial;" text-anchor="middle"><textPath startOffset="22.20632615414155" xlink:href="#id25">January</textPath></text><line stroke="#e1ed5e" stroke-width="0.3" x1="143.23703022742887" x2="145.7803849466894" y1="26.81831364943548" y2="22.513508569990506" /><path d="M 143.74570117128098 25.957352633546492 a86.0,86.0 0 0,1 28.547481713284135,27.462654790039103" fill="none" id="id26" stroke="none" /><text fill="#e1ed5e" style="font-size:6.75px; font-family:Arial;" text-anchor="middle"><textPath startOffset="19.985693538727396" xlink:href="#id26">February</textPath></text><path d="M 114.68862486808459 84.99185889309783 l 2.346905503938775 -2.397956873703697 a24.355318556048132,24.355318556048132 0 0,0 0.29709336617047766,0.2958175528401808 l -2.3878346702765754 2.3572034702133977" fill="red" stroke="none" /><path d="M 114.94478906791727 85.2469230424477 l 11.829685498350788 -11.677934010823185 a37.62274350854972,37.62274350854972 0 0,0 0.45099947803018275,0.46479460608344336 l -12.02894924008408 11.472575209189628" fill="red" stroke="none" /><path d="M 115.9244219780498 86.31012108654704 l 12.731227434428506 -10.94475907742185 a37.78904116529449,37.78904116529449 0 0,0 0.41979915382674404,0.4969097866615882 l -12.917737201742368 10.723990341131156" fill="red" stroke="none" /><path d="M 117.2510076193507 88.02491185347247 l 11.536827119601943 -8.008489981391737 a35.044012666244456,35.044012666244456 0 0,0 0.33971921922106624,0.4984960350570218 l -11.672970804491744 7.808715923064309" fill="red" stroke="none" /><path d="M 117.45458315368197 88.32363383020206 l 18.049741327839175 -12.074501416524928 a42.71604813172894,42.71604813172894 0 0,0 0.40357179397846893,0.6146675296985101 l -18.254909757175568 11.762015822848744" fill="red" stroke="none" /><line stroke="#e1ed5e" stroke-width="0.3" x1="172.23445277983987" x2="176.4835382374775" y1="55.19839476539836" y2="52.563006222186495" /><path d="M 173.08426987136738 54.67131705675599 a86.0,86.0 0 0,1 12.851231095245387,41.99856678651699" fill="none" id="id27" stroke="none" /><text fill="#e1ed5e" style="font-size:6.75px; font-family:Arial;" text-anchor="middle"><textPath startOffset="22.20632615414155" xlink:href="#id27">March</textPath></text><path d="M 118.56541770881063 90.18545643968196 l 9.315771523561223 -4.9247502453215395 a31.53739835338822,31.53739835338822 0 0,0 0.24958181471451435,0.4821126257323478 l -9.399162771435854 4.763664897328847" fill="red" stroke="none" /><path d="M 118.73160827565052 90.50648371742162 l 7.181264428677388 -3.6395940903682056 a29.050913236225462,29.050913236225462 0 0,0 0.2222256345694725,0.4479933189000266 l -7.242850076200269 3.515441182969229" fill="red" stroke="none" /><path d="M 119.196687751892 91.48605970444005 l 15.030751202294583 -6.666302019791891 a37.44272070930968,37.44272070930968 0 0,0 0.2562317530806501,0.5914182137277593 l -15.143273665217913 6.406584661477528" fill="red" stroke="none" /><path d="M 119.47837535516314 92.15188598940014 l 10.604032477708085 -4.27251525549317 a32.43240531982267,32.43240531982267 0 0,0 0.20417967505388618,0.5196150020703616 l -10.676005702643671 4.089351248527024" fill="red" stroke="none" /><path d="M 119.61058180528143 92.48833698450437 l 27.800775494314788 -10.648845564923558 a50.770472450918305,50.770472450918305 0 0,0 0.30557879797146276,0.8187992543436033 l -27.979958880787876 10.168723173550621" fill="red" stroke="none" /><path d="M 119.7369772167798 92.82701384747503 l 14.969603492600061 -5.440385190794112 a36.92754908169728,36.92754908169728 0 0,0 0.21197629881157873,0.5992855417757201 l -15.06103287222145 5.181902022591777" fill="red" stroke="none" /><path d="M 119.85752413597 93.16781622104841 l 13.880296186928259 -4.775657519337689 a35.67888030398987,35.67888030398987 0 0,0 0.19481128432612238,0.5824609440868102 l -13.960444765026152 4.536023472328565" fill="red" stroke="none" /><path d="M 119.97218684219823 93.5106431181261 l 13.792572147059301 -4.481478352292953 a35.50236858771375,35.50236858771375 0 0,0 0.18384228081684592,0.5828302696229638 l -13.867669911644354 4.243397916243571" fill="red" stroke="none" /><path d="M 120.08093135843002 93.85539295169968 l 13.006644340592324 -3.9799308639331668 a34.60193540215326,34.60193540215326 0 0,0 0.16937499561253205,0.5710482843848197 l -13.073225233316558 3.7554531928018173" fill="red" stroke="none" /><path d="M 120.37134235888165 94.90015583598534 l 12.703047877626016 -3.1801323370163126 a34.095062697910066,34.095062697910066 0 0,0 0.13762585665874416,0.5705480266449566 l -12.75590653454558 2.9609990787119496" fill="red" stroke="none" /><path d="M 120.67395015179393 96.31383870115 l 14.219068945439023 -2.5352572327745992 a35.44331855604813,35.44331855604813 0 0,0 0.10192171567359445,0.6015477353630729 l -14.26060252263284 2.2901237090956883" fill="red" stroke="none" /><path d="M 120.73433829027371 96.67025291283417 l 10.2168944349444 -1.640740785086699 a31.347799873337557,31.347799873337557 0 0,0 0.080973018893944,0.5335110237755342 l -10.243623347277644 1.4646306489190826" fill="red" stroke="none" /><path d="M 120.87857604477298 97.74499172005257 l 8.274421661174074 -0.8936859160179752 a29.32254338188727,29.32254338188727 0 0,0 0.04988026342421697,0.5022874455450277 l -8.28857905028052 0.7511229397685125" fill="red" stroke="none" /><path d="M 120.94382443527127 98.46500227214037 l 13.90998889206252 -1.0194795802389542 a34.947298290057,34.947298290057 0 0,0 0.03880715914840617,0.6003295755706411 l -13.92547664221534 0.779890940415278" fill="red" stroke="none" /><line stroke="#e1ed5e" stroke-width="0.3" x1="184.98032266829074" x2="189.97916517819016" y1="98.17113171792111" y2="98.06355123074" /><path d="M 185.9800911702706 98.14961562048488 a86.0,86.0 0 0,1 -9.607161424134198,41.387399972396054" fill="none" id="id28" stroke="none" /><text fill="#e1ed5e" style="font-size:6.75px; font-family:Arial;" text-anchor="middle"><textPath startOffset="21.466115282336823" xlink:href="#id28">April</textPath></text><path d="M 120.95626037817324 101.35467743843564 l 12.805323567675549 0.8277756916527874 a33.832050664977835,33.832050664977835 0 0,0 -0.04256948600053321,0.5808268148631818 l -12.789177523010679 -1.0480756430127394" fill="red" stroke="none" /><path d="M 120.81339534386255 102.79330883721812 l 13.504479601349786 1.8123992548676406 a34.62555541481951,34.62555541481951 0 0,0 -0.08436425723221419,0.5900434185898294 l -13.47128129310097 -2.0445881454378796" fill="red" stroke="none" /><path d="M 120.49622156327973 104.57218783832717 l 11.64382688510414 2.597442826781246 a32.93002153261558,32.93002153261558 0 0,0 -0.12817530114146222,0.5521758426581234 l -11.597391018032123 -2.7974873267879343" fill="red" stroke="none" /><path d="M 120.41448212921028 104.9243191809786 l 9.01484913438804 2.174534442026163 a30.273408486383786,30.273408486383786 0 0,0 -0.1265553687061135,0.5055257887012101 l -8.976082451386866 -2.3293880701247693" fill="red" stroke="none" /><path d="M 120.32669344350535 105.2749913415812 l 13.103418198747793 3.4004752290686566 a34.53745915136162,34.53745915136162 0 0,0 -0.15428692767888208,0.5741590540390227 l -13.042943194727133 -3.625525216283228" fill="red" stroke="none" /><line stroke="#e1ed5e" stroke-width="0.3" x1="174.80103733775053" x2="179.2010983576182" y1="140.37084112569926" y2="142.7455964860345" /><path d="M 175.68104954172406 140.8457921977663 a86.0,86.0 0 0,1 -30.038265399797805,32.042727171017184" fill="none" id="id29" stroke="none" /><text fill="#e1ed5e" style="font-size:6.75px; font-family:Arial;" text-anchor="middle"><textPath startOffset="22.206326154141568" xlink:href="#id29">May</textPath></text><path d="M 118.30583269289576 110.29060199501025 l 17.108939616762413 9.61776998109963 a40.62695376820773,40.62695376820773 0 0,0 -0.34793697798198675,0.6066574488067469 l -16.940850642628046 -9.910847275764693" fill="red" stroke="none" /><path d="M 113.75828350139079 115.86535959552629 l 13.459522244458753 15.52084316119354 a41.54398480050665,41.54398480050665 0 0,0 -0.5442944980560852,0.4638595794603536 l -13.19036226982562 -15.75022713087684" fill="red" stroke="none" /><line stroke="#e1ed5e" stroke-width="0.3" x1="143.8653032363475" x2="146.44561519142675" y1="172.8068346515853" y2="177.08958963109032" /><path d="M 144.38136562736335 173.6633856474863 a86.0,86.0 0 0,1 -40.68145358897372,12.25698825130547" fill="none" id="id30" stroke="none" /><text fill="#e1ed5e" style="font-size:6.75px; font-family:Arial;" text-anchor="middle"><textPath startOffset="21.466115282336833" xlink:href="#id30">June</textPath></text><line stroke="#e1ed5e" stroke-width="0.3" x1="102.19456741930631" x2="102.32365962044197" y1="184.97166512339345" y2="189.96999836594603" /><path d="M 102.22038585953345 185.97133177190398 a86.0,86.0 0 0,1 -42.740103519485714,-10.115201625700543" fill="none" id="id31" stroke="none" /><text fill="#e1ed5e" style="font-size:6.75px; font-family:Arial;" text-anchor="middle"><textPath startOffset="22.20632615414155" xlink:href="#id31">July</textPath></text><path d="M 98.01472825383883 120.90594882070398 l -0.406338229266215 4.2789538718621865 a25.29820392653578,25.29820392653578 0 0,0 -0.43316235697174543,-0.0448990493941401 l 0.4799331828435537 -4.271325454012286" fill="red" stroke="none" /><path d="M 96.22490169976321 120.6578951692458 l -2.5089795811448385 13.729506637169484 a34.95687397086764,34.95687397086764 0 0,0 -0.5909915406187505,-0.11326493533130211 l 2.744938736335284 -13.684284503489714" fill="red" stroke="none" /><path d="M 95.16358092515715 120.4354850818985 l -3.594105657867764 15.186296186814664 a36.60580620645978,36.60580620645978 0 0,0 -0.6119213346716335,-0.15039537609018203 l 3.8549802772826083 -15.12217955241045" fill="red" stroke="none" /><path d="M 94.81253420990036 120.34920634021253 l -7.007040870936516 27.486970765016046 a49.36603926535782,49.36603926535782 0 0,0 -0.821614405894564,-0.21699583213388515 l 7.4791457196425695 -27.36228358357858" fill="red" stroke="none" /><path d="M 94.11515582081647 120.15858648285463 l -7.713789646641303 26.42365557484333 a48.52657124762508,48.52657124762508 0 0,0 -0.7998219387338791,-0.2409797891011091 l 8.167486559815428 -26.286960416636497" fill="red" stroke="none" /><path d="M 91.40352486487194 119.15986991738527 l -6.483190423125277 14.44976960953752 a36.83753768207727,36.83753768207727 0 0,0 -0.5763004802707645,-0.2645512847387145 l 6.73095889916346 -14.336031254464732" fill="red" stroke="none" /><path d="M 90.7491055286396 118.85261126421891 l -27.752683414081172 56.55783379265673 a84.0,84.0 0 0,0 -1.292584369268958,-0.6481286363627916 l 28.72212169103289 -56.07173731538464" fill="red" stroke="none" /><line stroke="#e1ed5e" stroke-width="0.3" x1="58.666819895761336" x2="56.23545636021788" y1="174.27360380694188" y2="178.64263932499728" /><path d="M 58.180547188652646 175.14741091055294 a86.0,86.0 0 0,1 -31.652253787137756,-30.449443065178592" fill="none" id="id32" stroke="none" /><text fill="#e1ed5e" style="font-size:6.75px; font-family:Arial;" text-anchor="middle"><textPath startOffset="22.20632615414155" xlink:href="#id32">August</textPath></text><path d="M 89.4739219176387 118.17145234162733 l -9.763614050221864 16.855190129451294 a40.47884990500317,40.47884990500317 0 0,0 -0.5999199349646053,-0.35444327202090503 l 10.05230185621485 -16.68462828513664" fill="red" stroke="none" /><path d="M 86.24171649860922 115.8653595955263 l -11.028096345474516 12.717045273661935 a37.83277010766308,37.83277010766308 0 0,0 -0.48832674516233987,-0.4308915758286725 l 11.245365443543443 -12.525330556060974" fill="red" stroke="none" /><path d="M 85.70375840098266 115.38237550388516 l -13.91300454113057 14.970022628439658 a41.43705636478784,41.43705636478784 0 0,0 -0.5182871350170327,-0.49007283601047014 l 14.168627510538421 -14.728315155683257" fill="red" stroke="none" /><path d="M 85.18274418774928 114.88116024355367 l -13.034530675969444 13.090746501673134 a39.473403419886004,39.473403419886004 0 0,0 -0.47736385044976315,-0.483567060223896 l 13.25793515147474 -12.864438947468575" fill="red" stroke="none" /><path d="M 84.67929136418377 114.36230785411682 l -8.668474411170505 8.126210156344506 a32.88182393920203,32.88182393920203 0 0,0 -0.3835486135980746,-0.416266268289523 l 8.807069432764308 -7.975792633253638" fill="red" stroke="none" /><path d="M 83.95833913139862 113.55231037782056 l -8.789407842806988 7.425464488912108 a32.5061380620646,32.5061380620646 0 0,0 -0.3574189193592231,-0.4305341131747223 l 8.915922762059747 -7.273069118623625" fill="red" stroke="none" /><path d="M 83.50135304334701 112.99209946851258 l -11.02841032338977 8.68448208374282 a35.03730968967701,35.03730968967701 0 0,0 -0.3690482879226604,-0.47704466034988663 l 11.176265428530497 -8.49335942927968" fill="red" stroke="none" /><line stroke="#e1ed5e" stroke-width="0.3" x1="26.63291911575756" x2="22.317208475507996" y1="142.92168965132927" y2="145.44649492493687" /><path d="M 25.769776987707644 143.4266507060508 a86.0,86.0 0 0,1 -11.730757126820373,-40.83630448921669" fill="none" id="id33" stroke="none" /><text fill="#e1ed5e" style="font-size:6.75px; font-family:Arial;" text-anchor="middle"><textPath startOffset="21.46611528233685" xlink:href="#id33">September</textPath></text><line stroke="#e1ed5e" stroke-width="0.3" x1="15.007084014347285" x2="10.007500721073583" y1="101.09737516637583" y2="101.16192664675087" /><path d="M 14.007167355692545 101.11028546245083 a86.0,86.0 0 0,1 10.666146001902534,-42.60595125391555" fill="none" id="id34" stroke="none" /><text fill="#e1ed5e" style="font-size:6.75px; font-family:Arial;" text-anchor="middle"><textPath startOffset="22.20632615414155" xlink:href="#id34">October</textPath></text><path d="M 80.38941819471856 92.48833698450439 l -16.17869273049372 -6.197107716099878 a38.32496010132996,38.32496010132996 0 0,0 0.2412765202820313,-0.6140224268296489 l 16.069622660329994 6.47467914782529" fill="red" stroke="none" /><line stroke="#e1ed5e" stroke-width="0.3" x1="26.266209847984243" x2="21.928928074336255" y1="57.711370442889674" y2="55.22380399835377" /><path d="M 25.398753493254645 57.213857153982495 a86.0,86.0 0 0,1 29.58750427330803,-30.492523968695096" fill="none" id="id35" stroke="none" /><text fill="#e1ed5e" style="font-size:6.75px; font-family:Arial;" text-anchor="middle"><textPath startOffset="21.46611528233685" xlink:href="#id35">November</textPath></text><path d="M 82.54541684631803 88.32363383020206 l -10.524748853041933 -7.040604772469471 a33.66256111462951,33.66256111462951 0 0,0 0.32632732694616123,-0.47884508561631256 l 10.401997060427032 7.220727881356199" fill="red" stroke="none" /><path d="M 82.7489923806493 88.02491185347247 l -8.015130602786257 -5.5638428544099305 a30.75698036732109,30.75698036732109 0 0,0 0.3056473169333233,-0.4323164540118434 l 7.918170666049055 5.70098580875356" fill="red" stroke="none" /><path d="M 85.83668400450813 84.49514656593479 l -2.6356146077184093 -2.885257817756967 a24.90783533882204,24.90783533882204 0 0,0 0.31904447756723353,-0.2864412820827195 l 2.5855591425552045 2.9301981086089657" fill="red" stroke="none" /><path d="M 86.10567301691215 84.25364557470407 l -8.108092147359466 -9.188850443831088 a33.25463711209626,33.25463711209626 0 0,0 0.4324784580506972,-0.3750410571080692 l 7.948719890661995 9.327056494358837" fill="red" stroke="none" /><line stroke="#e1ed5e" stroke-width="0.3" x1="56.762969772571076" x2="54.21961505331055" y1="26.818313649435495" y2="22.513508569990535" /><path d="M 56.25429882871897 25.957352633546506 a86.0,86.0 0 0,1 42.265352541879196,-11.944610805530505" fill="none" id="id36" stroke="none" /><text fill="#e1ed5e" style="font-size:6.75px; font-family:Arial;" text-anchor="middle"><textPath startOffset="22.20632615414155" xlink:href="#id36">December</textPath></text></svg>