<?xml version="1.0" encoding="utf-8" ?>
<svg baseProfile="full" height="200mm" version="1.1" viewBox="0,0,200,200" width="200mm" xmlns="http://www.w3.org/2000/svg" xmlns:ev="http://www.w3.org/2001/xml-events" xmlns:xlink="http://www.w3.org/1999/xlink"><defs /><rect fill="#1a1a1a" height="200" width="200" x="0" y="0" /><rect fill="#1a1a1a" height="200" width="180" x="10" y="0" /><text alignment-baseline="middle" fill="#e1ed5e" style="dominant-baseline: central; font-size:9.0px; font-family:Arial;" text-anchor="middle" x="100.0" y="100.0">2025</text><line stroke="#e1ed5e" stroke-width="0.3" x1="100.0" x2="100.0" y1="15.0" y2="10.0" /><path d="M 100.0 14.0 a86.0,86.0 0 0,1 42.46469731375804,11.215312516191453" fill="none" id="id61" stroke="none" /><text fill="#e1ed5e" style="font-size:6.75px; font-family:Arial;" text-anchor="middle"><textPath startOffset="22.20632615414155" xlink:href="#id61">January</textPath></text><path d="M 107.08798089147638 80.2323363322302 l 1.9697486454823099 -5.493430263160462 a26.835896313556866,26.835896313556866 0 0,0 0.43348620634728807,0.1596566281382901 l -2.0640171776021745 5.458710367215847" fill="#ff3a05" stroke="none" /><line stroke="#e1ed5e" stroke-width="0.3" x1="143.23703022742887" x2="145.7803849466894" y1="26.81831364943548" y2="22.513508569990506" /><path d="M 143.74570117128098 25.957352633546492 a86.0,86.0 0 0,1 28.547481713284135,27.462654790039103" fill="none" id="id62" stroke="none" /><text fill="#e1ed5e" style="font-size:6.75px; font-family:Arial;" text-anchor="middle"><textPath startOffset="19.985693538727396" xlink:href="#id62">February</textPath></text><path d="M 110.99172775467656 82.1063720568725 l 4.568435489827966 -7.437036902809144 a29.728122405103214,29.728122405103214 0 0,0 0.43372034956460165,0.27159564310777223 l -4.695774991764831 7.357296918378428" fill="#ff6309" stroke="none" /><path d="M 116.38621287248628 86.86637796730983 l 6.749265533315092 -5.409566151899609 a29.64962376008188,29.64962376008188 0 0,0 0.31576273170793145,0.4009866030616175 l -6.841382345616987 5.292587154884953" fill="#ff6209" stroke="none" /><path d="M 116.60985879189232 87.15038557335679 l 7.540847879295315 -5.833703279055734 a30.533964583883154,30.533964583883154 0 0,0 0.31802441404000287,0.41848285047385303 l -7.640148233559432 5.703035652700847" fill="#ff6e0a" stroke="none" /><path d="M 117.04232023915458 87.72973835380427 l 33.800265131233516 -24.33577652872433 a62.649585138362305,62.649585138362305 0 0,0 0.6225798948999248,0.8805951094310325 l -34.21415764593732 23.750354918961506" fill="#32ff4a" stroke="none" /><line stroke="#e1ed5e" stroke-width="0.3" x1="172.23445277983987" x2="176.4835382374775" y1="55.19839476539836" y2="52.563006222186495" /><path d="M 173.08426987136738 54.67131705675599 a86.0,86.0 0 0,1 12.851231095245387,41.99856678651699" fill="none" id="id63" stroke="none" /><text fill="#e1ed5e" style="font-size:6.75px; font-family:Arial;" text-anchor="middle"><textPath startOffset="22.20632615414155" xlink:href="#id63">March</textPath></text><path d="M 119.85752413597 93.16781622104841 l 5.682744984746212 -1.9552063912324684 a27.00969405161149,27.00969405161149 0 0,0 0.14747641020734753,0.4409356953681714 l -5.71555868872533 1.8570975929419828" fill="#ff3c05" stroke="none" /><path d="M 120.53481517161879 95.60439243477599 l 11.55531944862935 -2.47348949393886 a32.8170875361274,32.8170875361274 0 0,0 0.11348571442346436,0.5533966471599521 l -11.59618445896781 2.274217190615496" fill="#ff8d0d" stroke="none" /><line stroke="#e1ed5e" stroke-width="0.3" x1="184.98032266829074" x2="189.97916517819016" y1="98.17113171792111" y2="98.06355123074" /><path d="M 185.9800911702706 98.14961562048488 a86.0,86.0 0 0,1 -9.607161424134198,41.387399972396054" fill="none" id="id64" stroke="none" /><text fill="#e1ed5e" style="font-size:6.75px; font-family:Arial;" text-anchor="middle"><textPath startOffset="21.466115282336823" xlink:href="#id64">April</textPath></text><path d="M 120.99824983174949 100.27111621757518 l 62.994749495248485 0.8133486527255557 a84.0,84.0 0 0,0 -0.03111174925997018,1.4456407368395405 l -62.97141568330351 -1.8975792053552112" fill="#4dd2ff" stroke="none" /><path d="M 120.76222939487914 103.15116336523771 l 28.166877426497788 4.2749952604517665 a49.48944661512813,49.48944661512813 0 0,0 -0.13507848845761034,0.8411338765680259 l -28.08911718367889 -4.759208366712997" fill="#a3ff22" stroke="none" /><path d="M 119.9155931802556 106.66101706037122 l 1.8004725756645183 0.6021903758870593 a22.89850855792936,22.89850855792936 0 0,0 -0.12824164591130433,0.3727302516020722 l -1.7898400988099832 -0.6330933305784318" fill="#ff0100" stroke="none" /><path d="M 119.12269723197855 108.67885076344098 l 7.784807064719449 3.533140640008485 a29.5490528023276,29.5490528023276 0 0,0 -0.21419599451687496,0.4613591164191169 l -7.722836453362743 -3.6666198237064327" fill="#ff6008" stroke="none" /><line stroke="#e1ed5e" stroke-width="0.3" x1="174.80103733775053" x2="179.2010983576182" y1="140.37084112569926" y2="142.7455964860345" /><path d="M 175.68104954172406 140.8457921977663 a86.0,86.0 0 0,1 -30.038265399797805,32.042727171017184" fill="none" id="id65" stroke="none" /><text fill="#e1ed5e" style="font-size:6.75px; font-family:Arial;" text-anchor="middle"><textPath startOffset="22.206326154141568" xlink:href="#id65">May</textPath></text><path d="M 117.55443506779139 111.5257021239791 l 18.42344716782851 12.096268739679461 a43.03958082560362,43.03958082560362 0 0,0 -0.4119439090652668,0.6158002507690215 l -18.212500153352522 -12.411605904654289" fill="#eeff19" stroke="none" /><path d="M 117.35343817320211 111.8261652097733 l 2.7729379430983956 1.8897247856146 a24.355628793779328,24.355628793779328 0 0,0 -0.23907843928787742,0.34441032310677105 l -2.739998596648382 -1.9371763709083907" fill="#ff1602" stroke="none" /><path d="M 116.0416608686014 113.55231037782055 l 2.904303984615423 2.4536130861667322 a24.801999317682956,24.801999317682956 0 0,0 -0.2783227103253535,0.3237521904550979 l -2.861638764719291 -2.5032423757833584" fill="#ff1d02" stroke="none" /><path d="M 114.81725581225074 114.88116024355365 l 1.9283384373733055 1.9366550496233286 a23.732969430908962,23.732969430908962 0 0,0 -0.2919720848923405,0.28575613704509883 l -1.8947164001051706 -1.9695612895909995" fill="#ff0d01" stroke="none" /><path d="M 114.0293411484842 115.62618273729858 l 13.572017583651101 15.11680588784282 a41.3154493315224,41.3154493315224 0 0,0 -0.5332794516385503,0.4705571127323675 l -13.309795779105963 -15.348186142347476" fill="#fffb17" stroke="none" /><path d="M 113.48314897796784 116.09983520530334 l 9.893175678473252 11.81315272424889 a36.4086177930262,36.4086177930262 0 0,0 -0.48393965735394645,0.39824939155816685 l -9.688365892574614 -11.981697234664235" fill="#ffbd11" stroke="none" /><path d="M 113.20401910651253 116.32954008644616 l 1.9273282366463589 2.3835457557414013 a24.065270706069402,24.065270706069402 0 0,0 -0.32435688376578886,0.2576887253371869 l -1.8860138601632188 -2.416368395083714" fill="#ff1202" stroke="none" /><path d="M 112.92097659922987 116.55440617244103 l 3.679564528300897 4.714272583918309 a26.980264301300906,26.980264301300906 0 0,0 -0.36856489169979956,0.28259984254217246 l -3.5978709081076037 -4.776911768287853" fill="#ff3c05" stroke="none" /><path d="M 112.04921762599082 117.19931262002967 l 1.5504515714351432 2.2131479492749606 a23.70220723127329,23.70220723127329 0 0,0 -0.3361685353845934,0.2312197839858859 l -1.5121261514276665 -2.2395085226259406" fill="#ff0c01" stroke="none" /><path d="M 111.7513745106137 117.40417183066458 l 5.101496863332121 7.55548450292661 a30.11650241707595,30.11650241707595 0 0,0 -0.4321363887487623,0.2863964347856266 l -4.970685775843395 -7.642178958803554" fill="#ff6809" stroke="none" /><path d="M 111.45004920935366 117.60387380957326 l 7.243194211427626 11.136046190267948 a34.284403905943236,34.284403905943236 0 0,0 -0.4974800845768667,0.31751532743250516 l -7.05043232480383 -11.259075946524261" fill="#ffa10e" stroke="none" /><line stroke="#e1ed5e" stroke-width="0.3" x1="143.8653032363475" x2="146.44561519142675" y1="172.8068346515853" y2="177.08958963109032" /><path d="M 144.38136562736335 173.6633856474863 a86.0,86.0 0 0,1 -40.68145358897372,12.25698825130547" fill="none" id="id66" stroke="none" /><text fill="#e1ed5e" style="font-size:6.75px; font-family:Arial;" text-anchor="middle"><textPath startOffset="21.466115282336833" xlink:href="#id66">June</textPath></text><path d="M 109.57404056367764 118.69057910512821 l 1.394334422079309 2.722039628048733 a24.058376729126568,24.058376729126568 0 0,0 -0.3702081155958696,0.18563003455418 l -1.347272398800679 -2.745637503512215" fill="#ff1202" stroke="none" /><path d="M 108.92500713936063 119.00905698771935 l 0.7914045647575031 1.6855845868706296 a22.862126898096594,22.862126898096594 0 0,0 -0.3576638271833935,0.16418592075695754 l -0.7622727418066901 -1.6989575779616615" fill="#ff0000" stroke="none" /><path d="M 108.2653958097858 119.30500536409082 l 3.4868587556677504 8.14405365830114 a29.859107967017053,29.859107967017053 0 0,0 -0.4742316524260442,0.1982288691754123 l -3.346155643744245 -8.202867570496524" fill="#ff6409" stroke="none" /><path d="M 107.2578585660854 119.70592522655815 l 1.1526387423639006 3.129547464095592 a24.33506272810953,24.33506272810953 0 0,0 -0.39432123034400357,0.14138956392397428 l -1.0985979513901623 -3.1489245690595262" fill="#ff1602" stroke="none" /><path d="M 106.91757812671514 119.82793768551818 l 0.955872581767333 2.7398291192958344 a23.901784967139353,23.901784967139353 0 0,0 -0.38963354433703756,0.13218485304223376 l -0.9085693044930685 -2.755876959236191" fill="#ff0f01" stroke="none" /><line stroke="#e1ed5e" stroke-width="0.3" x1="102.19456741930631" x2="102.32365962044197" y1="184.97166512339345" y2="189.96999836594603" /><path d="M 102.22038585953345 185.97133177190398 a86.0,86.0 0 0,1 -42.740103519485714,-10.115201625700543" fill="none" id="id67" stroke="none" /><text fill="#e1ed5e" style="font-size:6.75px; font-family:Arial;" text-anchor="middle"><textPath startOffset="22.20632615414155" xlink:href="#id67">July</textPath></text><path d="M 90.10565033884886 118.52300852407294 l -1.483427754030904 2.777094591739341 a24.148461890018215,24.148461890018215 0 0,0 -0.364960520588156,-0.1990055750328898 l 1.5310110864877005 -2.7511483649466855" fill="#ff1302" stroke="none" /><line stroke="#e1ed5e" stroke-width="0.3" x1="58.666819895761336" x2="56.23545636021788" y1="174.27360380694188" y2="178.64263932499728" /><path d="M 58.180547188652646 175.14741091055294 a86.0,86.0 0 0,1 -31.652253787137756,-30.449443065178592" fill="none" id="id68" stroke="none" /><text fill="#e1ed5e" style="font-size:6.75px; font-family:Arial;" text-anchor="middle"><textPath startOffset="22.20632615414155" xlink:href="#id68">August</textPath></text><path d="M 82.85270091963577 112.12312394758628 l -4.544557519096155 3.212997792406128 a26.565640830881925,26.565640830881925 0 0,0 -0.26077224293021795,-0.37566186525389805 l 4.5991906691885065 -3.1342946649652172" fill="#ff3605" stroke="none" /><line stroke="#e1ed5e" stroke-width="0.3" x1="26.63291911575756" x2="22.317208475507996" y1="142.92168965132927" y2="145.44649492493687" /><path d="M 25.769776987707644 143.4266507060508 a86.0,86.0 0 0,1 -11.730757126820373,-40.83630448921669" fill="none" id="id69" stroke="none" /><text fill="#e1ed5e" style="font-size:6.75px; font-family:Arial;" text-anchor="middle"><textPath startOffset="21.46611528233685" xlink:href="#id69">September</textPath></text><line stroke="#e1ed5e" stroke-width="0.3" x1="15.007084014347285" x2="10.007500721073583" y1="101.09737516637583" y2="101.16192664675087" /><path d="M 14.007167355692545 101.11028546245083 a86.0,86.0 0 0,1 10.666146001902534,-42.60595125391555" fill="none" id="id70" stroke="none" /><text fill="#e1ed5e" style="font-size:6.75px; font-family:Arial;" text-anchor="middle"><textPath startOffset="22.20632615414155" xlink:href="#id70">October</textPath></text><line stroke="#e1ed5e" stroke-width="0.3" x1="26.266209847984243" x2="21.928928074336255" y1="57.711370442889674" y2="55.22380399835377" /><path d="M 25.398753493254645 57.213857153982495 a86.0,86.0 0 0,1 29.58750427330803,-30.492523968695096" fill="none" id="id71" stroke="none" /><text fill="#e1ed5e" style="font-size:6.75px; font-family:Arial;" text-anchor="middle"><textPath startOffset="21.46611528233685" xlink:href="#id71">November</textPath></text><line stroke="#e1ed5e" stroke-width="0.3" x1="56.762969772571076" x2="54.21961505331055" y1="26.818313649435495" y2="22.513508569990535" /><path d="M 56.25429882871897 25.957352633546506 a86.0,86.0 0 0,1 42.265352541879196,-11.944610805530505" fill="none" id="id72" stroke="none" /><text fill="#e1ed5e" style="font-size:6.75px; font-family:Arial;" text-anchor="middle"><textPath startOffset="22.20632615414155" xlink:href="#id72">December</textPath></text></svg>