<?xml version="1.0" encoding="utf-8" ?>
<svg baseProfile="full" height="200mm" version="1.1" viewBox="0,0,200,200" width="200mm" xmlns="http://www.w3.org/2000/svg" xmlns:ev="http://www.w3.org/2001/xml-events" xmlns:xlink="http://www.w3.org/1999/xlink"><defs /><rect fill="#1a1a1a" height="200" width="200" x="0" y="0" /><rect fill="#1a1a1a" height="200" width="180" x="10" y="0" /><text alignment-baseline="middle" fill="#e1ed5e" style="dominant-baseline: central; font-size:9.0px; font-family:Arial;" text-anchor="middle" x="100.0" y="100.0">2025</text><line stroke="#e1ed5e" stroke-width="0.3" x1="100.0" x2="100.0" y1="15.0" y2="10.0" /><path d="M 100.0 14.0 a86.0,86.0 0 0,1 42.46469731375804,11.215312516191453" fill="none" id="id61" stroke="none" /><text fill="#e1ed5e" style="font-size:6.75px; font-family:Arial;" text-anchor="middle"><textPath startOffset="22.20632615414155" xlink:href="#id61">January</textPath></text><path d="M 107.08798089147638 80.2323363322302 l 1.6917299068401528 -4.718064047737296 a26.012192976756644,26.012192976756644 0 0,0 0.4201807430062052,0.15475611370034506 l -1.7726929756189345 4.688244666230626" fill="#ff1b02" stroke="none" /><line stroke="#e1ed5e" stroke-width="0.3" x1="143.23703022742887" x2="145.7803849466894" y1="26.81831364943548" y2="22.513508569990506" /><path d="M 143.74570117128098 25.957352633546492 a86.0,86.0 0 0,1 28.547481713284135,27.462654790039103" fill="none" id="id62" stroke="none" /><text fill="#e1ed5e" style="font-size:6.75px; font-family:Arial;" text-anchor="middle"><textPath startOffset="19.985693538727396" xlink:href="#id62">February</textPath></text><path d="M 110.99172775467656 82.1063720568725 l 3.8962846826578152 -6.342830720340842 a28.443959690595687,28.443959690595687 0 0,0 0.41498497523304206,0.2598635534201362 l -4.00488881026312 6.274822825597762" fill="#ff3f05" stroke="none" /><path d="M 116.38621287248628 86.86637796730983 l 11.63139388636427 -9.322613602399324 a35.90638950649664,35.90638950649664 0 0,0 0.3823960711300801,0.4856041774061835 l -11.790144038088314 9.121017031040102" fill="#ffa80f" stroke="none" /><path d="M 116.60985879189232 87.15038557335679 l 6.44843214996344 -4.988595497503329 a29.152813148257025,29.152813148257025 0 0,0 0.30363912598450565,0.3995534976173308 l -6.53334721617206 4.876857224004965" fill="#ff4906" stroke="none" /><path d="M 117.04232023915458 87.72973835380427 l 29.124961469090184 -20.969615207678675 a56.888551691787406,56.888551691787406 0 0,0 0.5653296578909761,0.7996187092343132 l -29.481603746785044 20.465169998112568" fill="#59ff2a" stroke="none" /><line stroke="#e1ed5e" stroke-width="0.3" x1="172.23445277983987" x2="176.4835382374775" y1="55.19839476539836" y2="52.563006222186495" /><path d="M 173.08426987136738 54.67131705675599 a86.0,86.0 0 0,1 12.851231095245387,41.99856678651699" fill="none" id="id63" stroke="none" /><text fill="#e1ed5e" style="font-size:6.75px; font-family:Arial;" text-anchor="middle"><textPath startOffset="22.20632615414155" xlink:href="#id63">March</textPath></text><path d="M 119.85752413597 93.16781622104841 l 5.76580940865599 -1.983785553758392 a27.0975374750998,27.0975374750998 0 0,0 0.14795604661980094,0.4423697471921323 l -5.799102749047561 1.8842427036439457" fill="#ff2b04" stroke="none" /><path d="M 120.53481517161879 95.60439243477599 l 10.12371702119837 -2.1670459049502475 a31.35305434543175,31.35305434543175 0 0,0 0.10842289913241046,0.5287085617785194 l -10.159519216245778 1.9924616870083163" fill="#ff6909" stroke="none" /><line stroke="#e1ed5e" stroke-width="0.3" x1="184.98032266829074" x2="189.97916517819016" y1="98.17113171792111" y2="98.06355123074" /><path d="M 185.9800911702706 98.14961562048488 a86.0,86.0 0 0,1 -9.607161424134198,41.387399972396054" fill="none" id="id64" stroke="none" /><text fill="#e1ed5e" style="font-size:6.75px; font-family:Arial;" text-anchor="middle"><textPath startOffset="21.466115282336823" xlink:href="#id64">April</textPath></text><path d="M 120.99824983174949 100.27111621757518 l 62.994749495248485 0.8133486527255557 a84.0,84.0 0 0,0 -0.03111174925997018,1.4456407368395405 l -62.97141568330351 -1.8975792053552112" fill="#4dd2ff" stroke="none" /><path d="M 120.76222939487914 103.15116336523771 l 24.27479012804205 3.6842782099877303 a45.55278684160065,45.55278684160065 0 0,0 -0.12433361074832068,0.7742255128154925 l -24.207774762932438 -4.101582952496427" fill="#daff1b" stroke="none" /><path d="M 119.9155931802556 106.66101706037122 l 3.102856985812581 1.0377889893272247 a24.27180798042531,24.27180798042531 0 0,0 -0.13593272228968004,0.39508411967068247 l -3.08453343257967 -1.0910458120872075" fill="#ff0100" stroke="none" /><path d="M 119.12269723197855 108.67885076344098 l 8.322123019678092 3.777001897096398 a30.13911783955792,30.13911783955792 0 0,0 -0.21847327434457994,0.4705719966433165 l -8.255875128493681 -3.9196939610185453" fill="#ff5708" stroke="none" /><line stroke="#e1ed5e" stroke-width="0.3" x1="174.80103733775053" x2="179.2010983576182" y1="140.37084112569926" y2="142.7455964860345" /><path d="M 175.68104954172406 140.8457921977663 a86.0,86.0 0 0,1 -30.038265399797805,32.042727171017184" fill="none" id="id65" stroke="none" /><text fill="#e1ed5e" style="font-size:6.75px; font-family:Arial;" text-anchor="middle"><textPath startOffset="22.206326154141568" xlink:href="#id65">May</textPath></text><path d="M 117.55443506779139 111.5257021239791 l 16.21755625492238 10.647948615336821 a40.40072010509984,40.40072010509984 0 0,0 -0.3866866323950341,0.5780440490993237 l -16.031866517116622 -10.925529578641953" fill="#ffe315" stroke="none" /><path d="M 117.35343817320211 111.8261652097733 l 4.778761967419612 3.2566704050703628 a26.782946313819394,26.782946313819394 0 0,0 -0.2629053455550447,0.3787347586792678 l -4.721995714702431 -3.33844642593665" fill="#ff2703" stroke="none" /><path d="M 116.0416608686014 113.55231037782055 l 5.005152552385456 4.228451245409127 a27.552202073154692,27.552202073154692 0 0,0 -0.3091848950646867,0.3596518836562346 l -4.931625147749991 -4.31398022822689" fill="#ff3204" stroke="none" /><path d="M 114.81725581225074 114.88116024355365 l 3.32321551146445 3.337548003259697 a25.709881952841357,25.709881952841357 0 0,0 -0.31629282032996536,0.3095590955070838 l -3.2652727387586906 -3.394257201689353" fill="#ff1702" stroke="none" /><path d="M 114.0293411484842 115.62618273729858 l 6.554195217403668 7.300203985284349 a30.810731531063247,30.810731531063247 0 0,0 -0.397689733049372,0.35091495082367546 l -6.427563131447709 -7.411942077880314" fill="#ff6109" stroke="none" /><path d="M 113.48314897796784 116.09983520530334 l 8.523166200498894 10.177264337853918 a34.27482849169359,34.27482849169359 0 0,0 -0.45557754623996144,0.37490930499405106 l -8.346718525714241 -10.322468761705148" fill="#ff920d" stroke="none" /><path d="M 113.20401910651253 116.32954008644616 l 3.3214745749875254 4.10770022224665 a26.282555675819587,26.282555675819587 0 0,0 -0.35424192648951386,0.2814312107030434 l -3.2502751557806606 -4.164265346954819" fill="#ff1f03" stroke="none" /><path d="M 112.92097659922987 116.55440617244103 l 3.1706630410617596 4.062265991628828 a26.1531649601676,26.1531649601676 0 0,0 -0.3572662707639374,0.2739365418064663 l -3.1002680418043282 -4.1162418752626655" fill="#ff1d03" stroke="none" /><path d="M 112.04921762599082 117.19931262002967 l 2.6719815422992763 3.8140439725998605 a25.6568677012895,25.6568677012895 0 0,0 -0.363891495570028,0.25028788879287517 l -2.605933162106365 -3.8594726507578296" fill="#ff1602" stroke="none" /><path d="M 111.7513745106137 117.40417183066458 l 4.378251524628882 6.484334388601727 a28.824044917823393,28.824044917823393 0 0,0 -0.41359114373314,0.27410565763057415 l -4.265985682155779 -6.5587380673236195" fill="#ff4406" stroke="none" /><path d="M 111.45004920935366 117.60387380957326 l 6.2222520628980815 9.566399071641875 a32.41194163725656,32.41194163725656 0 0,0 -0.4703099260888039,0.30017404677386733 l -6.0566603347623476 -9.672087547239553" fill="#ff780b" stroke="none" /><line stroke="#e1ed5e" stroke-width="0.3" x1="143.8653032363475" x2="146.44561519142675" y1="172.8068346515853" y2="177.08958963109032" /><path d="M 144.38136562736335 173.6633856474863 a86.0,86.0 0 0,1 -40.68145358897372,12.25698825130547" fill="none" id="id66" stroke="none" /><text fill="#e1ed5e" style="font-size:6.75px; font-family:Arial;" text-anchor="middle"><textPath startOffset="21.466115282336833" xlink:href="#id66">June</textPath></text><path d="M 109.57404056367764 118.69057910512821 l 2.4029359628046203 4.691046000760333 a26.27067489251512,26.27067489251512 0 0,0 -0.40425075876442274,0.20269972255257204 l -2.3218312963574372 -4.731713564222208" fill="#ff1f03" stroke="none" /><path d="M 108.92500713936063 119.00905698771935 l 1.3638725829830889 2.904863968071942 a24.20910939290259,24.20910939290259 0 0,0 -0.3787365347398133,0.17385936724507228 l -1.3136680524758562 -2.9279104056510885" fill="#ff0000" stroke="none" /><path d="M 108.2653958097858 119.30500536409082 l 3.929036039325535 9.176821480839797 a30.982553615659754,30.982553615659754 0 0,0 -0.4920745661177456,0.20568720854564662 l -3.770490013710328 -9.243093732405416" fill="#ff6309" stroke="none" /><path d="M 107.2578585660854 119.70592522655815 l 1.9864080254274648 5.39332747560295 a26.747503640936326,26.747503640936326 0 0,0 -0.43341201385693245,0.1554061281082505 l -1.8932764509407976 -5.42672114475116" fill="#ff2603" stroke="none" /><path d="M 106.91757812671514 119.82793768551818 l 1.6473096885626317 4.721703644723472 a26.000811386027994,26.000811386027994 0 0,0 -0.4238507002679882,0.14379317012374118 l -1.5657892553574164 -4.749359801745335" fill="#ff1b02" stroke="none" /><line stroke="#e1ed5e" stroke-width="0.3" x1="102.19456741930631" x2="102.32365962044197" y1="184.97166512339345" y2="189.96999836594603" /><path d="M 102.22038585953345 185.97133177190398 a86.0,86.0 0 0,1 -42.740103519485714,-10.115201625700543" fill="none" id="id67" stroke="none" /><text fill="#e1ed5e" style="font-size:6.75px; font-family:Arial;" text-anchor="middle"><textPath startOffset="22.20632615414155" xlink:href="#id67">July</textPath></text><path d="M 90.10565033884886 118.52300852407294 l -2.5564755785542777 4.785925356880496 a26.42592378359447,26.42592378359447 0 0,0 -0.39938025639099184,-0.2177739593635696 l 2.63847864681391 -4.741210745757161" fill="#ff2103" stroke="none" /><line stroke="#e1ed5e" stroke-width="0.3" x1="58.666819895761336" x2="56.23545636021788" y1="174.27360380694188" y2="178.64263932499728" /><path d="M 58.180547188652646 175.14741091055294 a86.0,86.0 0 0,1 -31.652253787137756,-30.449443065178592" fill="none" id="id68" stroke="none" /><text fill="#e1ed5e" style="font-size:6.75px; font-family:Arial;" text-anchor="middle"><textPath startOffset="22.20632615414155" xlink:href="#id68">August</textPath></text><path d="M 82.85270091963577 112.12312394758628 l -7.831894934778533 5.537142181623192 a30.591585990279214,30.591585990279214 0 0,0 -0.3002915135479872,-0.4325923220652754 l 7.926047355488654 -5.401508597370904" fill="#ff5e08" stroke="none" /><line stroke="#e1ed5e" stroke-width="0.3" x1="26.63291911575756" x2="22.317208475507996" y1="142.92168965132927" y2="145.44649492493687" /><path d="M 25.769776987707644 143.4266507060508 a86.0,86.0 0 0,1 -11.730757126820373,-40.83630448921669" fill="none" id="id69" stroke="none" /><text fill="#e1ed5e" style="font-size:6.75px; font-family:Arial;" text-anchor="middle"><textPath startOffset="21.46611528233685" xlink:href="#id69">September</textPath></text><line stroke="#e1ed5e" stroke-width="0.3" x1="15.007084014347285" x2="10.007500721073583" y1="101.09737516637583" y2="101.16192664675087" /><path d="M 14.007167355692545 101.11028546245083 a86.0,86.0 0 0,1 10.666146001902534,-42.60595125391555" fill="none" id="id70" stroke="none" /><text fill="#e1ed5e" style="font-size:6.75px; font-family:Arial;" text-anchor="middle"><textPath startOffset="22.20632615414155" xlink:href="#id70">October</textPath></text><line stroke="#e1ed5e" stroke-width="0.3" x1="26.266209847984243" x2="21.928928074336255" y1="57.711370442889674" y2="55.22380399835377" /><path d="M 25.398753493254645 57.213857153982495 a86.0,86.0 0 0,1 29.58750427330803,-30.492523968695096" fill="none" id="id71" stroke="none" /><text fill="#e1ed5e" style="font-size:6.75px; font-family:Arial;" text-anchor="middle"><textPath startOffset="21.46611528233685" xlink:href="#id71">November</textPath></text><line stroke="#e1ed5e" stroke-width="0.3" x1="56.762969772571076" x2="54.21961505331055" y1="26.818313649435495" y2="22.513508569990535" /><path d="M 56.25429882871897 25.957352633546506 a86.0,86.0 0 0,1 42.265352541879196,-11.944610805530505" fill="none" id="id72" stroke="none" /><text fill="#e1ed5e" style="font-size:6.75px; font-family:Arial;" text-anchor="middle"><textPath startOffset="22.20632615414155" xlink:href="#id72">December</textPath></text></svg>