<?xml version="1.0" encoding="utf-8" ?>
<svg baseProfile="full" height="200mm" version="1.1" viewBox="0,0,200,200" width="200mm" xmlns="http://www.w3.org/2000/svg" xmlns:ev="http://www.w3.org/2001/xml-events" xmlns:xlink="http://www.w3.org/1999/xlink"><defs /><rect fill="#1a1a1a" height="200" width="200" x="0" y="0" /><rect fill="#1a1a1a" height="200" width="180" x="10" y="0" /><text alignment-baseline="middle" fill="#e1ed5e" style="dominant-baseline: central; font-size:9.0px; font-family:Arial;" text-anchor="middle" x="100.0" y="100.0">2024</text><line stroke="#e1ed5e" stroke-width="0.3" x1="100.0" x2="100.0" y1="15.0" y2="10.0" /><path d="M 100.0 14.0 a86.0,86.0 0 0,1 42.35913384403234,11.155469271406648" fill="none" id="id49" stroke="none" /><text fill="#e1ed5e" style="font-size:6.75px; font-family:Arial;" text-anchor="middle"><textPath startOffset="22.145653131862478" xlink:href="#id49">January</textPath></text><path d="M 106.38641147887787 79.99465700312896 l 4.660840125170373 -14.600015308439797 a36.32592175626232,36.32592175626232 0 0,0 0.5924191540717635,0.19473994288296526 l -4.910782016889879 14.51785444415481" fill="#ffb010" stroke="none" /><path d="M 109.06512990194946 81.05736502329252 l 17.69881779252271 -36.98372208553958 a62.00053475935828,62.00053475935828 0 0,0 0.9561065581947206,0.46767962872365876 l -18.331084599979498 36.6744487067187" fill="#31ff3d" stroke="none" /><line stroke="#e1ed5e" stroke-width="0.3" x1="143.13028292997686" x2="145.6673583964461" y1="26.7553504044142" y2="22.446841604673864" /><path d="M 143.63769802327073 25.89364864446614 a86.0,86.0 0 0,1 29.32050498858742,28.57503671076993" fill="none" id="id50" stroke="none" /><text fill="#e1ed5e" style="font-size:6.75px; font-family:Arial;" text-anchor="middle"><textPath startOffset="20.669276256404974" xlink:href="#id50">February</textPath></text><path d="M 111.5731344415666 82.4767994020092 l 5.172731818162072 -7.832175263056369 a30.38616661975795,30.38616661975795 0 0,0 0.43279120126060033,0.2912012350657611 l -5.306419307519673 7.742224353933489" fill="#ff5e08" stroke="none" /><path d="M 117.81537515405839 88.88188828441811 l 7.6055054977978465 -4.746397931380414 a29.965043625105544,29.965043625105544 0 0,0 0.26858957889220414,0.4387208918299275 l -7.685863041145454 4.615139923425931" fill="#ff5808" stroke="none" /><line stroke="#e1ed5e" stroke-width="0.3" x1="172.87174338648825" x2="177.1583165268699" y1="56.24261187166439" y2="53.66864786411523" /><path d="M 173.72905801456457 55.72781907015455 a86.0,86.0 0 0,1 12.242430191666344,42.057860355516425" fill="none" id="id51" stroke="none" /><text fill="#e1ed5e" style="font-size:6.75px; font-family:Arial;" text-anchor="middle"><textPath startOffset="22.145653131862474" xlink:href="#id51">March</textPath></text><path d="M 119.94978838288452 93.4421083053983 l 27.045074082302484 -8.890253034281796 a49.46880101322826,49.46880101322826 0 0,0 0.25826314567826614,0.8090056254334035 l -27.193701943758008 8.424678375157006" fill="#aaff21" stroke="none" /><path d="M 120.43855184770803 95.1765574152323 l 14.447059115656158 -3.409466613992359 a35.843920630453134,35.843920630453134 0 0,0 0.13618835930948772,0.6000710395562825 l -14.50345833652331 3.16096124049705" fill="#ffa90f" stroke="none" /><path d="M 120.9064616781168 98.02013634271609 l 14.7154305341172 -1.393566571156341 a35.7812693498452,35.7812693498452 0 0,0 0.052660448137146605,0.6119942308879394 l -14.737184604952088 1.1407512928927397" fill="#ffa80f" stroke="none" /><line stroke="#e1ed5e" stroke-width="0.3" x1="184.99686870605535" x2="189.99668451229388" y1="99.2704041080226" y2="99.22748670261217" /><path d="M 185.99683186730306 99.26182062694052 a86.0,86.0 0 0,1 -10.086455211305974,41.156179273409016" fill="none" id="id52" stroke="none" /><text fill="#e1ed5e" style="font-size:6.75px; font-family:Arial;" text-anchor="middle"><textPath startOffset="21.40746469413373" xlink:href="#id52">April</textPath></text><path d="M 120.99303781780057 100.54070618675476 l 25.53965830775204 0.6578110026027094 a46.54812834224599,46.54812834224599 0 0,0 -0.027430840854585106,0.7986190018084284 l -25.524602779900604 -1.0961362689752485" fill="#cdff1d" stroke="none" /><path d="M 120.16314734710363 105.8691983318838 l 42.76681299328465 12.448795972134223 a65.54180973824937,65.54180973824937 0 0,0 -0.32372560474634127,1.077577252153754 l -42.54681106853468 -13.1811108278787" fill="#35ff68" stroke="none" /><line stroke="#e1ed5e" stroke-width="0.3" x1="174.33088141563837" x2="178.70328620479359" y1="141.23008692659167" y2="143.65538615756765" /><path d="M 175.20536237346943 141.71514677278685 a86.0,86.0 0 0,1 -30.301960400862466,31.631185727798858" fill="none" id="id53" stroke="none" /><text fill="#e1ed5e" style="font-size:6.75px; font-family:Arial;" text-anchor="middle"><textPath startOffset="22.145653131862474" xlink:href="#id53">May</textPath></text><path d="M 116.79662413953412 112.60449989151573 l 16.751240634963455 12.570443263607327 a41.94325921756262,41.94325921756262 0 0,0 -0.43710473062282973,0.5721841236356426 l -16.53298392698632 -12.856148300483847" fill="#fff917" stroke="none" /><path d="M 115.41159269507618 114.26474011684316 l 6.579097444485449 6.0895143743939935 a29.964748100197017,29.964748100197017 0 0,0 -0.35264822316791333,0.37450019235755294 l -6.473593387581276 -6.201556026696044" fill="#ff5808" stroke="none" /><path d="M 115.16444852881244 114.52719865689866 l 12.305696031036314 11.788578431626851 a38.04114832535885,38.04114832535885 0 0,0 -0.4557930960971503,0.4676838697758595 l -12.101516133788357 -11.998084993470448" fill="#ffc612" stroke="none" /><path d="M 114.91283532996324 114.78537596483092 l 6.295667704243844 6.241858901899279 a29.865451730931607,29.865451730931607 0 0,0 -0.36408556914700085,0.36097374537435506 l -6.187590214966877 -6.349012657502296" fill="#ff5608" stroke="none" /><path d="M 114.65682725009322 115.03919595460226 l 4.087245831520506 4.193874289845178 a26.856121587390938,26.856121587390938 0 0,0 -0.33292320819735294,0.3189329024254165 l -4.014650137457841 -4.263419322576175" fill="#ff2b04" stroke="none" /><path d="M 114.39649973595853 115.28858382429668 l 6.108483866294476 6.486998183033621 a29.910371517027862,29.910371517027862 0 0,0 -0.3768282777306791,0.3487866281479838 l -5.9962258172498295 -6.590902557313984" fill="#ff5708" stroke="none" /><path d="M 114.13192950727249 115.5334660781643 l 3.011337976345624 3.3099879447729212 a25.474838164931043,25.474838164931043 0 0,0 -0.32599904528245394,0.2915103565014393 l -2.954073904239792 -3.361193831157747" fill="#ff1602" stroke="none" /><path d="M 113.31354834802062 116.24036423190432 l 1.905414954958764 2.324296428911723 a24.005488319729807,24.005488319729807 0 0,0 -0.3209296358576251,0.25851819722997227 l -1.8652345487458863 -2.356662919935099" fill="#ff0000" stroke="none" /><path d="M 111.8722381534696 117.32195027204791 l 5.090560432002042 7.427279803532618 a30.00434843793977,30.00434843793977 0 0,0 -0.4273529519532697,0.2875421382304327 l -4.96231119195177 -7.5135716158201715" fill="#ff5808" stroke="none" /><path d="M 111.27062007382361 117.71928675628689 l 9.785264641915953 15.38406130634844 a39.23240923163524,39.23240923163524 0 0,0 -0.5713656217635997,0.3565744059991604 l -9.519734891362639 -15.54977150918915" fill="#ffd614" stroke="none" /><line stroke="#e1ed5e" stroke-width="0.3" x1="143.1302829299769" x2="145.66735839644613" y1="173.24464959558577" y2="177.55315839532614" /><path d="M 143.63769802327073 174.10635135553383 a86.0,86.0 0 0,1 -40.68552437913181,11.842963189579606" fill="none" id="id54" stroke="none" /><text fill="#e1ed5e" style="font-size:6.75px; font-family:Arial;" text-anchor="middle"><textPath startOffset="21.407464694133747" xlink:href="#id54">June</textPath></text><path d="M 108.73861861582097 119.09545874513695 l 8.110707179677119 17.72335893719058 a40.49104981705601,40.49104981705601 0 0,0 -0.6345267523380119,0.28381574546633515 l -7.80526702448348 -17.859978433566763" fill="#ffe615" stroke="none" /><path d="M 106.72888874123015 119.89276391827305 l 7.705552947211676 22.780098101400945 a45.04804390655784,45.04804390655784 0 0,0 -0.7346633691163141,0.24149844169722207 l -7.313366840447628 -22.909017464500188" fill="#dfff1b" stroke="none" /><path d="M 105.69591212413111 120.21278271476187 l 5.8870850824206205 20.891188101402832 a42.70482690683929,42.70482690683929 0 0,0 -0.7073110984791989,0.1927807851632529 l -5.527592583006726 -20.989169380710226" fill="#fcff18" stroke="none" /><line stroke="#e1ed5e" stroke-width="0.3" x1="101.45913802915013" x2="101.54496967792366" y1="184.9874750549273" y2="189.98673829345242" /><path d="M 101.47630435890484 185.9873277026323 a86.0,86.0 0 0,1 -42.54439059252881,-10.42667462771756" fill="none" id="id55" stroke="none" /><text fill="#e1ed5e" style="font-size:6.75px; font-family:Arial;" text-anchor="middle"><textPath startOffset="22.145653131862474" xlink:href="#id55">July</textPath></text><path d="M 96.41257539226777 120.69131181640829 l -2.0583012761307433 11.871734788443318 a33.04884604559527,33.04884604559527 0 0,0 -0.5581560851710066,-0.10171463187561798 l 2.2617920948528067 -11.834651982636334" fill="#ff830c" stroke="none" /><line stroke="#e1ed5e" stroke-width="0.3" x1="58.13341422392154" x2="55.67067388415222" y1="173.97424548756322" y2="178.32567169271397" /><path d="M 57.64086615596768 174.84453072859336 a86.0,86.0 0 0,1 -31.369924170532247,-30.572349798747897" fill="none" id="id56" stroke="none" /><text fill="#e1ed5e" style="font-size:6.75px; font-family:Arial;" text-anchor="middle"><textPath startOffset="22.145653131862474" xlink:href="#id56">August</textPath></text><path d="M 89.34428304082925 118.09573695890944 l -7.6566409785428995 13.002650283167968 a36.08950182943991,36.08950182943991 0 0,0 -0.5311468022686038,-0.31893839367511406 l 7.87872053736893 -12.869297888956934" fill="#ffac10" stroke="none" /><line stroke="#e1ed5e" stroke-width="0.3" x1="26.387840678322732" x2="22.057713659400548" y1="142.50000000000003" y2="145.00000000000006" /><path d="M 25.521815274538298 143.00000000000003 a86.0,86.0 0 0,1 -11.493303480769221,-40.785679425670985" fill="none" id="id57" stroke="none" /><text fill="#e1ed5e" style="font-size:6.75px; font-family:Arial;" text-anchor="middle"><textPath startOffset="21.40746469413373" xlink:href="#id57">September</textPath></text><path d="M 81.4637452351635 109.86951160357371 l -13.077893788841514 6.963241827261025 a35.81614128905151,35.81614128905151 0 0,0 -0.28429817873038316,-0.545179243835488 l 13.195500036546846 -6.737716340321034" fill="#ffa90f" stroke="none" /><path d="M 79.64726062577567 105.17358676015961 l -20.514564560636327 5.2147220897330655 a42.16697157331832,42.16697157331832 0 0,0 -0.17230724428683727,-0.7030723566815833 l 20.60105933143946 -4.861793908443383" fill="#fffb17" stroke="none" /><path d="M 79.56144815229197 104.8234425847677 l -10.451388382918191 2.4664992007135385 a31.738488601182098,31.738488601182098 0 0,0 -0.12058984099762596,-0.5313410897544384 l 10.492189085473484 -2.286723777020074" fill="#ff710a" stroke="none" /><line stroke="#e1ed5e" stroke-width="0.3" x1="15.003131293944662" x2="10.003315487706104" y1="100.72959589197737" y2="100.7725132973878" /><path d="M 14.003168132696942 100.73817937305945 a86.0,86.0 0 0,1 10.791469493833604,-42.45332614584628" fill="none" id="id58" stroke="none" /><text fill="#e1ed5e" style="font-size:6.75px; font-family:Arial;" text-anchor="middle"><textPath startOffset="22.145653131862435" xlink:href="#id58">October</textPath></text><path d="M 79.00696218219943 99.45929381324524 l -17.367853930068648 -0.4473343092193311 a38.37361384745286,38.37361384745286 0 0,0 0.022613594401153448,-0.6583701273939091 l 17.35761564867064 0.7454107011773786" fill="#ffcb12" stroke="none" /><path d="M 80.5471966667186 92.08871423366112 l -28.52411692820042 -11.60051003370689 a51.792808893892484,51.792808893892484 0 0,0 0.3420154301163859,-0.8207125259337521 l 28.320775653547557 12.088455069081904" fill="#90ff24" stroke="none" /><path d="M 81.1358732173502 90.77261029715801 l -13.594860634200383 -6.649927583341413 a36.13412609062764,36.13412609062764 0 0,0 0.2773381704431023,-0.5548621223613798 l 13.478702550545538 6.882321561866564" fill="#ffad10" stroke="none" /><path d="M 81.29705330413844 90.45014215332179 l -2.959150432051384 -1.5109632953870409 a24.322586546580354,24.322586546580354 0 0,0 0.19306566280826792,-0.37022886509669917 l 2.9327767002681764 1.5615384035882267" fill="#ff0500" stroke="none" /><line stroke="#e1ed5e" stroke-width="0.3" x1="26.387840678322718" x2="22.05771365940052" y1="57.49999999999999" y2="54.99999999999999" /><path d="M 25.521815274538284 56.99999999999999 a86.0,86.0 0 0,1 29.574782752854787,-30.34633250058573" fill="none" id="id59" stroke="none" /><text fill="#e1ed5e" style="font-size:6.75px; font-family:Arial;" text-anchor="middle"><textPath startOffset="21.40746469413373" xlink:href="#id59">November</textPath></text><path d="M 82.18462484594161 88.88188828441811 l -53.44612546217515 -33.35433514674566 a84.0,84.0 0 0,0 0.7739292334964403,-1.2167453012853122 l 52.865678537052815 34.266894122709644" fill="#4dd2ff" stroke="none" /><path d="M 83.2033758604659 87.39550010848427 l -2.5537676217777454 -1.9163948329290188 a24.192851111736562,24.192851111736562 0 0,0 0.2521217918078671,-0.33003551869474035 l 2.5204938526155716 1.9599512648646433" fill="#ff0300" stroke="none" /><line stroke="#e1ed5e" stroke-width="0.3" x1="56.869717070023135" x2="54.33264160355391" y1="26.7553504044142" y2="22.446841604673864" /><path d="M 56.362301976729285 25.89364864446614 a86.0,86.0 0 0,1 42.16139366436587,-11.88097634709845" fill="none" id="id60" stroke="none" /><text fill="#e1ed5e" style="font-size:6.75px; font-family:Arial;" text-anchor="middle"><textPath startOffset="22.145653131862474" xlink:href="#id60">December</textPath></text><path d="M 91.92203290615298 80.6158196554323 l -7.3386046117420305 -17.60997954297653 a40.07790599493386,40.07790599493386 0 0,0 0.6373256148493832,-0.2591947792252017 l 7.035224535702206 17.73336157878102" fill="#ffe115" stroke="none" /><path d="M 92.93061703081487 80.22567764915836 l -20.63999177081155 -57.733730422273645 a82.31225724739657,82.31225724739657 0 0,0 1.3346118325088234,-0.4642472746285445 l 19.645874166257723 58.079536129470775" fill="#4be2ff" stroke="none" /></svg>