<?xml version="1.0" encoding="utf-8" ?>
<svg baseProfile="full" height="200mm" version="1.1" viewBox="0,0,200,200" width="200mm" xmlns="http://www.w3.org/2000/svg" xmlns:ev="http://www.w3.org/2001/xml-events" xmlns:xlink="http://www.w3.org/1999/xlink"><defs /><rect fill="#1a1a1a" height="200" width="200" x="0" y="0" /><rect fill="#1a1a1a" height="200" width="180" x="10" y="0" /><text alignment-baseline="middle" fill="#e1ed5e" style="dominant-baseline: central; font-size:9.0px; font-family:Arial;" text-anchor="middle" x="100.0" y="100.0">2023</text><line stroke="#e1ed5e" stroke-width="0.3" x1="100.0" x2="100.0" y1="15.0" y2="10.0" /><path d="M 100.0 14.0 a86.0,86.0 0 0,1 42.46469731375804,11.215312516191453" fill="none" id="id37" stroke="none" /><text fill="#e1ed5e" style="font-size:6.75px; font-family:Arial;" text-anchor="middle"><textPath startOffset="22.20632615414155" xlink:href="#id37">January</textPath></text><path d="M 105.36241919743992 79.69619591428918 l 3.401046775129042 -12.877431783312622 a34.3189852654204,34.3189852654204 0 0,0 0.569862028654879,0.15576481909422277 l -3.622206693007632 12.816980423392106" fill="#ff8c0c" stroke="none" /><path d="M 108.43124777332544 80.76684994638697 l 3.637986008586955 -8.298882048925988 a30.061257388500806,30.061257388500806 0 0,0 0.47213048705238986,0.21183118726703962 l -3.7802986141061248 8.235030531142417" fill="#ff5007" stroke="none" /><line stroke="#e1ed5e" stroke-width="0.3" x1="143.23703022742887" x2="145.7803849466894" y1="26.81831364943548" y2="22.513508569990506" /><path d="M 143.74570117128098 25.957352633546492 a86.0,86.0 0 0,1 28.547481713284135,27.462654790039103" fill="none" id="id38" stroke="none" /><text fill="#e1ed5e" style="font-size:6.75px; font-family:Arial;" text-anchor="middle"><textPath startOffset="19.985693538727396" xlink:href="#id38">February</textPath></text><line stroke="#e1ed5e" stroke-width="0.3" x1="172.23445277983987" x2="176.4835382374775" y1="55.19839476539836" y2="52.563006222186495" /><path d="M 173.08426987136738 54.67131705675599 a86.0,86.0 0 0,1 12.851231095245387,41.99856678651699" fill="none" id="id39" stroke="none" /><text fill="#e1ed5e" style="font-size:6.75px; font-family:Arial;" text-anchor="middle"><textPath startOffset="22.20632615414155" xlink:href="#id39">March</textPath></text><line stroke="#e1ed5e" stroke-width="0.3" x1="184.98032266829074" x2="189.97916517819016" y1="98.17113171792111" y2="98.06355123074" /><path d="M 185.9800911702706 98.14961562048488 a86.0,86.0 0 0,1 -9.607161424134198,41.387399972396054" fill="none" id="id40" stroke="none" /><text fill="#e1ed5e" style="font-size:6.75px; font-family:Arial;" text-anchor="middle"><textPath startOffset="21.466115282336823" xlink:href="#id40">April</textPath></text><line stroke="#e1ed5e" stroke-width="0.3" x1="174.80103733775053" x2="179.2010983576182" y1="140.37084112569926" y2="142.7455964860345" /><path d="M 175.68104954172406 140.8457921977663 a86.0,86.0 0 0,1 -30.038265399797805,32.042727171017184" fill="none" id="id41" stroke="none" /><text fill="#e1ed5e" style="font-size:6.75px; font-family:Arial;" text-anchor="middle"><textPath startOffset="22.206326154141568" xlink:href="#id41">May</textPath></text><path d="M 118.48025628344425 109.97397251340804 l 26.577095287463553 14.34391459824409 a51.20082581520971,51.20082581520971 0 0,0 -0.4252681846541294,0.7719852826416254 l -26.326250693357913 -14.79927039928352" fill="#9bff22" stroke="none" /><path d="M 116.0416608686014 113.55231037782055 l 7.868620891569972 6.6475655757493035 a31.30074379931559,31.30074379931559 0 0,0 -0.35125022534832,0.4085833661271526 l -7.753028156650872 -6.782026041037985" fill="#ff6109" stroke="none" /><path d="M 114.29624159901734 115.38237550388516 l 5.782338279599155 6.2216421072093 a29.493778104584408,29.493778104584408 0 0,0 -0.3748525078113296,0.3424188782184733 l -5.674386222320962 -6.320253752014356" fill="#ff4706" stroke="none" /><line stroke="#e1ed5e" stroke-width="0.3" x1="143.8653032363475" x2="146.44561519142675" y1="172.8068346515853" y2="177.08958963109032" /><path d="M 144.38136562736335 173.6633856474863 a86.0,86.0 0 0,1 -40.68145358897372,12.25698825130547" fill="none" id="id42" stroke="none" /><text fill="#e1ed5e" style="font-size:6.75px; font-family:Arial;" text-anchor="middle"><textPath startOffset="21.466115282336833" xlink:href="#id42">June</textPath></text><path d="M 106.57524785965236 119.94407469862006 l 3.6113747860057916 10.954040065741424 a32.533994174043386,32.533994174043386 0 0,0 -0.5333695120504209,0.17076807450449968 l -3.4222839288644304 -11.01458098690563" fill="#ff730a" stroke="none" /><line stroke="#e1ed5e" stroke-width="0.3" x1="102.19456741930631" x2="102.32365962044197" y1="184.97166512339345" y2="189.96999836594603" /><path d="M 102.22038585953345 185.97133177190398 a86.0,86.0 0 0,1 -42.740103519485714,-10.115201625700543" fill="none" id="id43" stroke="none" /><text fill="#e1ed5e" style="font-size:6.75px; font-family:Arial;" text-anchor="middle"><textPath startOffset="22.20632615414155" xlink:href="#id43">July</textPath></text><line stroke="#e1ed5e" stroke-width="0.3" x1="58.666819895761336" x2="56.23545636021788" y1="174.27360380694188" y2="178.64263932499728" /><path d="M 58.180547188652646 175.14741091055294 a86.0,86.0 0 0,1 -31.652253787137756,-30.449443065178592" fill="none" id="id44" stroke="none" /><text fill="#e1ed5e" style="font-size:6.75px; font-family:Arial;" text-anchor="middle"><textPath startOffset="22.20632615414155" xlink:href="#id44">August</textPath></text><path d="M 87.95078237400918 117.19931262002967 l -5.522146317180385 7.882430527095816 a30.624282360926497,30.624282360926497 0 0,0 -0.4291375906219066,-0.306178276599018 l 5.657011235651178 -7.786207988652579" fill="#ff5808" stroke="none" /><path d="M 87.07902340077011 116.55440617244103 l -9.30000436806472 11.915202270670104 a36.1149636584745,36.1149636584745 0 0,0 -0.4867652316341008,-0.386715739225148 l 9.50372709241618 -11.753352617439825" fill="#ffa50f" stroke="none" /><path d="M 82.85270091963577 112.12312394758628 l -9.003314038194013 6.3653343603866945 a32.02620266410249,32.02620266410249 0 0,0 -0.31437392210570186,-0.4528790819083243 l 9.111548867461849 -6.209414016291358" fill="#ff6c09" stroke="none" /><path d="M 82.44556493220864 111.52570212397912 l -25.20542629575971 16.54910763410786 a51.15271925111004,51.15271925111004 0 0,0 -0.476926364495558,-0.7402003088426025 l 25.486557523632314 -16.11278572534381" fill="#9cff22" stroke="none" /><path d="M 82.05923443525364 110.91462005526583 l -3.182089743468616 1.9358873179840954 a24.72469526853135,24.72469526853135 0 0,0 -0.21807078125073553,-0.3654991727841356 l 3.2149414004175836 -1.8808260513138486" fill="#ff0000" stroke="none" /><line stroke="#e1ed5e" stroke-width="0.3" x1="26.63291911575756" x2="22.317208475507996" y1="142.92168965132927" y2="145.44649492493687" /><path d="M 25.769776987707644 143.4266507060508 a86.0,86.0 0 0,1 -11.730757126820373,-40.83630448921669" fill="none" id="id45" stroke="none" /><text fill="#e1ed5e" style="font-size:6.75px; font-family:Arial;" text-anchor="middle"><textPath startOffset="21.46611528233685" xlink:href="#id45">September</textPath></text><path d="M 81.51974371655577 109.97397251340807 l -13.518250764198227 7.295930288167076 a36.36143556096043,36.36143556096043 0 0,0 -0.29253206358889033,-0.553360420723635 l 13.641835336012004 -7.062154852357315" fill="#ffa80f" stroke="none" /><path d="M 80.58989483394504 108.01547362559985 l -58.23031549816486 24.046420876799544 a84.0,84.0 0 0,0 -0.5403895429704488,-1.3412025286287785 l 58.6356076553927 -23.04051898032796" fill="#4dd2ff" stroke="none" /><path d="M 79.1416061653843 102.43462659150553 l -29.60105697061847 3.455084845398678 a50.80201645974151,50.80201645974151 0 0,0 -0.09390558847965931,-0.8694491224429018 l 29.65614486059918 -2.945039401070994" fill="#a0ff22" stroke="none" /><line stroke="#e1ed5e" stroke-width="0.3" x1="15.007084014347285" x2="10.007500721073583" y1="101.09737516637583" y2="101.16192664675087" /><path d="M 14.007167355692545 101.11028546245083 a86.0,86.0 0 0,1 10.666146001902534,-42.60595125391555" fill="none" id="id46" stroke="none" /><text fill="#e1ed5e" style="font-size:6.75px; font-family:Arial;" text-anchor="middle"><textPath startOffset="22.20632615414155" xlink:href="#id46">October</textPath></text><path d="M 79.00175016825051 100.2711162175752 l -30.160004951501616 0.3894070472548181 a51.1625187363896,51.1625187363896 0 0,0 -0.0037901747178121035,-0.8807031235443672 l 30.162239423508932 0.12980555449322442" fill="#9cff22" stroke="none" /><path d="M 79.12142395522702 97.74499172005258 l -14.927482160125669 -1.6122553471877275 a36.014296218784466,36.014296218784466 0 0,0 0.0718736400644495,-0.615769455579896 l 14.89751816705763 1.8689685410924852" fill="#ffa40f" stroke="none" /><path d="M 79.26566170972629 96.67025291283419 l -14.714407950389955 -2.363000753931155 a35.90293843151673,35.90293843151673 0 0,0 0.10324341037301615,-0.6093484522959238 l 14.671552678496717 2.615934994542907" fill="#ffa20f" stroke="none" /><path d="M 79.32604984820605 96.31383870115002 l -14.719789361873593 -2.6245355858253276 a35.951935857914535,35.951935857914535 0 0,0 0.11387223750610825,-0.6083100460941173 l 14.672431400457622 2.8775237093820176" fill="#ffa30f" stroke="none" /><path d="M 79.62865764111835 94.90015583598534 l -23.272727582426654 -5.82618866498973 a44.99092168896179,44.99092168896179 0 0,0 0.19454003437587988,-0.7496421103247085 l 23.16899121618047 6.225927200863302" fill="#e5ff1a" stroke="none" /><path d="M 80.14247586403 93.16781622104843 l -59.435542630790245 -20.449404843965645 a83.85508639950223,83.85508639950223 0 0,0 0.4813558249470111,-1.3608577371977126 l 59.07473372503342 21.469460207589968" fill="#4dd3ff" stroke="none" /><path d="M 81.43458229118936 90.18545643968196 l -19.723163856833132 -10.426582038513162 a43.30956757826861,43.30956757826861 0 0,0 0.35409057045423736,-0.6560760500140301 l 19.54076518716042 10.764539071859666" fill="#faff18" stroke="none" /><line stroke="#e1ed5e" stroke-width="0.3" x1="26.266209847984243" x2="21.928928074336255" y1="57.711370442889674" y2="55.22380399835377" /><path d="M 25.398753493254645 57.213857153982495 a86.0,86.0 0 0,1 29.58750427330803,-30.492523968695096" fill="none" id="id47" stroke="none" /><text fill="#e1ed5e" style="font-size:6.75px; font-family:Arial;" text-anchor="middle"><textPath startOffset="21.46611528233685" xlink:href="#id47">November</textPath></text><path d="M 82.7489923806493 88.02491185347247 l -17.825000392454193 -12.373535252056232 a42.69873299584265,42.69873299584265 0 0,0 0.4243184155521954,-0.6001683071324528 l 17.60936935709812 12.678530059520472" fill="#fffc17" stroke="none" /><path d="M 84.07557802195018 86.31012108654704 l -21.275647463589223 -18.29021097175914 a49.0568172176815,49.0568172176815 0 0,0 0.5559962687991777,-0.6355998489107978 l 20.957659331212202 18.653726376872882" fill="#b4ff20" stroke="none" /><path d="M 84.31358615837235 86.03803664274999 l -6.784255314717354 -6.038443526138915 a30.08234112955683,30.08234112955683 0 0,0 0.34760339905926063,-0.38383235514624514 l 6.6793082750420485 6.154328668554716" fill="#ff5007" stroke="none" /><path d="M 85.83668400450813 84.49514656593479 l -16.53361556288131 -18.099665792901185 a45.514451766169856,45.514451766169856 0 0,0 0.5829946395568012,-0.5234183436596604 l 16.21960993572854 18.381583145330122" fill="#dfff1b" stroke="none" /><path d="M 86.65592168130627 83.78471172551755 l -10.945397309795927 -13.30048943196398 a38.22511948867332,38.22511948867332 0 0,0 0.5116643417967596,-0.4137303138631123 l 10.714829569434668 13.486925843091226" fill="#ffc112" stroke="none" /><line stroke="#e1ed5e" stroke-width="0.3" x1="56.762969772571076" x2="54.21961505331055" y1="26.818313649435495" y2="22.513508569990535" /><path d="M 56.25429882871897 25.957352633546506 a86.0,86.0 0 0,1 42.265352541879196,-11.944610805530505" fill="none" id="id48" stroke="none" /><text fill="#e1ed5e" style="font-size:6.75px; font-family:Arial;" text-anchor="middle"><textPath startOffset="22.20632615414155" xlink:href="#id48">December</textPath></text><path d="M 89.63071344664047 81.73862282372117 l -13.2518596514745 -23.33788406149144 a47.83782063972397,47.83782063972397 0 0,0 0.7195626272086147,-0.4004358229876702 l 12.84817293519384 23.562535282039295" fill="#c3ff1e" stroke="none" /><path d="M 90.26544431104013 81.39251694778311 l -8.306954836981554 -15.878641643600394 a38.92028903532339,38.92028903532339 0 0,0 0.596294991291873,-0.3054454547628115 l 8.032399358100916 16.01927962367571" fill="#ffcb12" stroke="none" /></svg>