<?xml version="1.0" encoding="utf-8" ?>
<svg baseProfile="full" height="200mm" version="1.1" viewBox="0,0,200,200" width="200mm" xmlns="http://www.w3.org/2000/svg" xmlns:ev="http://www.w3.org/2001/xml-events" xmlns:xlink="http://www.w3.org/1999/xlink"><defs /><rect fill="#1a1a1a" height="200" width="200" x="0" y="0" /><rect fill="#1a1a1a" height="200" width="180" x="10" y="0" /><text alignment-baseline="middle" fill="#e1ed5e" style="dominant-baseline: central; font-size:9.0px; font-family:Arial;" text-anchor="middle" x="100.0" y="100.0">2021</text><line stroke="#e1ed5e" stroke-width="0.3" x1="100.0" x2="100.0" y1="15.0" y2="10.0" /><path d="M 100.0 14.0 a86.0,86.0 0 0,1 42.46469731375804,11.215312516191453" fill="none" id="id13" stroke="none" /><text fill="#e1ed5e" style="font-size:6.75px; font-family:Arial;" text-anchor="middle"><textPath startOffset="22.20632615414155" xlink:href="#id13">January</textPath></text><line stroke="#e1ed5e" stroke-width="0.3" x1="143.23703022742887" x2="145.7803849466894" y1="26.81831364943548" y2="22.513508569990506" /><path d="M 143.74570117128098 25.957352633546492 a86.0,86.0 0 0,1 28.547481713284135,27.462654790039103" fill="none" id="id14" stroke="none" /><text fill="#e1ed5e" style="font-size:6.75px; font-family:Arial;" text-anchor="middle"><textPath startOffset="19.985693538727396" xlink:href="#id14">February</textPath></text><path d="M 112.48926042617603 83.11751280151076 l 13.305244528033613 -17.985502163643535 a43.372032094318,43.372032094318 0 0,0 0.5963733850737705,0.4491760695206726 l -13.612864066865766 17.753809504617017" fill="red" stroke="none" /><line stroke="#e1ed5e" stroke-width="0.3" x1="172.23445277983987" x2="176.4835382374775" y1="55.19839476539836" y2="52.563006222186495" /><path d="M 173.08426987136738 54.67131705675599 a86.0,86.0 0 0,1 12.851231095245387,41.99856678651699" fill="none" id="id15" stroke="none" /><text fill="#e1ed5e" style="font-size:6.75px; font-family:Arial;" text-anchor="middle"><textPath startOffset="22.20632615414155" xlink:href="#id15">March</textPath></text><line stroke="#e1ed5e" stroke-width="0.3" x1="184.98032266829074" x2="189.97916517819016" y1="98.17113171792111" y2="98.06355123074" /><path d="M 185.9800911702706 98.14961562048488 a86.0,86.0 0 0,1 -9.607161424134198,41.387399972396054" fill="none" id="id16" stroke="none" /><text fill="#e1ed5e" style="font-size:6.75px; font-family:Arial;" text-anchor="middle"><textPath startOffset="21.466115282336823" xlink:href="#id16">April</textPath></text><line stroke="#e1ed5e" stroke-width="0.3" x1="174.80103733775053" x2="179.2010983576182" y1="140.37084112569926" y2="142.7455964860345" /><path d="M 175.68104954172406 140.8457921977663 a86.0,86.0 0 0,1 -30.038265399797805,32.042727171017184" fill="none" id="id17" stroke="none" /><text fill="#e1ed5e" style="font-size:6.75px; font-family:Arial;" text-anchor="middle"><textPath startOffset="22.206326154141568" xlink:href="#id17">May</textPath></text><path d="M 111.1453310114006 117.79835938074945 l 13.011402889435173 20.778353234821232 a45.51604715899788,45.51604715899788 0 0,0 -0.667613774373014,0.410102907945992 l -12.651809915129851 -20.999244609595603" fill="red" stroke="none" /><line stroke="#e1ed5e" stroke-width="0.3" x1="143.8653032363475" x2="146.44561519142675" y1="172.8068346515853" y2="177.08958963109032" /><path d="M 144.38136562736335 173.6633856474863 a86.0,86.0 0 0,1 -40.68145358897372,12.25698825130547" fill="none" id="id18" stroke="none" /><text fill="#e1ed5e" style="font-size:6.75px; font-family:Arial;" text-anchor="middle"><textPath startOffset="21.466115282336833" xlink:href="#id18">June</textPath></text><path d="M 109.2508944713604 118.85261126421891 l 20.565706368171675 41.91132746498576 a67.68519731455707,67.68519731455707 0 0,0 -1.0503689699389913,0.5042409363879008 l -19.84122473023245 -42.25912267787322" fill="red" stroke="none" /><path d="M 108.92500713936063 119.00905698771935 l 20.621998443054366 43.92206498926819 a69.52231046340266,69.52231046340266 0 0,0 -1.0876335235914945,0.49927920562522815 l -19.862896923695452 -44.27053126522749" fill="red" stroke="none" /><path d="M 102.34483914955558 120.86867818915974 l 5.485049888812241 48.81603115625372 a70.1232192565908,70.1232192565908 0 0,0 -1.2006678031308742,0.12445412702897442 l -4.643949489075764 -48.90321465173845" fill="red" stroke="none" /><line stroke="#e1ed5e" stroke-width="0.3" x1="102.19456741930631" x2="102.32365962044197" y1="184.97166512339345" y2="189.96999836594603" /><path d="M 102.22038585953345 185.97133177190398 a86.0,86.0 0 0,1 -42.740103519485714,-10.115201625700543" fill="none" id="id19" stroke="none" /><text fill="#e1ed5e" style="font-size:6.75px; font-family:Arial;" text-anchor="middle"><textPath startOffset="22.20632615414155" xlink:href="#id19">July</textPath></text><path d="M 95.86986931433489 120.58985236759428 l -7.22536166906411 36.020441334908355 a57.7379646307516,57.7379646307516 0 0,0 -0.9727707088594276,-0.2038535601139395 l 7.844323839352924 -35.890731794067875" fill="red" stroke="none" /><path d="M 91.07499286063937 119.00905698771935 l -4.305398891854664 9.169916798071267 a31.130342230227612,31.130342230227612 0 0,0 -0.4830944844594415,-0.23191471014400883 l 4.462606044314348 -9.094447811427695" fill="red" stroke="none" /><line stroke="#e1ed5e" stroke-width="0.3" x1="58.666819895761336" x2="56.23545636021788" y1="174.27360380694188" y2="178.64263932499728" /><path d="M 58.180547188652646 175.14741091055294 a86.0,86.0 0 0,1 -31.652253787137756,-30.449443065178592" fill="none" id="id20" stroke="none" /><text fill="#e1ed5e" style="font-size:6.75px; font-family:Arial;" text-anchor="middle"><textPath startOffset="22.20632615414155" xlink:href="#id20">August</textPath></text><path d="M 86.79598089348748 116.32954008644616 l -28.70095818395292 35.49475681636312 a66.64671688226625,66.64671688226625 0 0,0 -0.8858614055364522,-0.7290036276190521 l 29.307689718034062 -34.99545806988689" fill="red" stroke="none" /><path d="M 84.43433777217949 114.09645910891817 l -9.105033059330571 8.245632233802674 a33.2838136564598,33.2838136564598 0 0,0 -0.38092714582304266,-0.4279756865131391 l 9.245619054801951 -8.08768237754867" fill="red" stroke="none" /><line stroke="#e1ed5e" stroke-width="0.3" x1="26.63291911575756" x2="22.317208475507996" y1="142.92168965132927" y2="145.44649492493687" /><path d="M 25.769776987707644 143.4266507060508 a86.0,86.0 0 0,1 -11.730757126820373,-40.83630448921669" fill="none" id="id21" stroke="none" /><text fill="#e1ed5e" style="font-size:6.75px; font-family:Arial;" text-anchor="middle"><textPath startOffset="21.46611528233685" xlink:href="#id21">September</textPath></text><path d="M 81.35079622478065 109.6543875284942 l -55.94761132565806 28.96316258548259 a84.0,84.0 0 0,0 -0.6536853208549331,-1.28978315318926 l 56.437875316299255 -27.995825220590643" fill="red" stroke="none" /><path d="M 79.35854240842038 103.8639653848113 l -45.69377193066399 8.553618476709337 a67.48747339119045,67.48747339119045 0 0,0 -0.2039200135338272,-1.1436917304912313 l 45.83423838653701 -7.7658079954848915" fill="red" stroke="none" /><path d="M 79.07016306316243 101.71520430193888 l -10.826486799323709 0.887232747637944 a31.862780415916163,31.862780415916163 0 0,0 -0.04009163376719645,-0.547018489802033 l 10.840154991755242 -0.7007411213391503" fill="red" stroke="none" /><line stroke="#e1ed5e" stroke-width="0.3" x1="15.007084014347285" x2="10.007500721073583" y1="101.09737516637583" y2="101.16192664675087" /><path d="M 14.007167355692545 101.11028546245083 a86.0,86.0 0 0,1 10.666146001902534,-42.60595125391555" fill="none" id="id22" stroke="none" /><text fill="#e1ed5e" style="font-size:6.75px; font-family:Arial;" text-anchor="middle"><textPath startOffset="22.20632615414155" xlink:href="#id22">October</textPath></text><path d="M 79.00019446554 99.90962569577889 l -34.604804813498966 -0.1489244818289248 a55.6051252660881,55.6051252660881 0 0,0 0.012357558277874683,-0.9571065071284 l 34.597114248103374 0.7445672470177968" fill="red" stroke="none" /><path d="M 79.08570108090925 98.10471618934814 l -36.13598389053806 -3.2746947681424112 a57.28405927624038,57.28405927624038 0 0,0 0.09744529761604274,-0.9812608486781679 l 36.074261467239786 3.8962311475250093" fill="red" stroke="none" /><path d="M 80.38941819471856 92.48833698450439 l -29.64466818092466 -11.35513264177201 a52.74500573112822,52.74500573112822 0 0,0 0.3320585699610628,-0.8450528411912739 l 29.44481606108191 11.863734487859048" fill="red" stroke="none" /><path d="M 80.52162464483688 92.15188598940014 l -42.269860649768816 -17.03112705976375 a66.57192565907975,66.57192565907975 0 0,0 0.43740390491319714,-1.0592082503138214 l 41.970435057969425 17.756209880530886" fill="red" stroke="none" /><line stroke="#e1ed5e" stroke-width="0.3" x1="26.266209847984243" x2="21.928928074336255" y1="57.711370442889674" y2="55.22380399835377" /><path d="M 25.398753493254645 57.213857153982495 a86.0,86.0 0 0,1 29.58750427330803,-30.492523968695096" fill="none" id="id23" stroke="none" /><text fill="#e1ed5e" style="font-size:6.75px; font-family:Arial;" text-anchor="middle"><textPath startOffset="21.46611528233685" xlink:href="#id23">November</textPath></text><path d="M 84.07557802195018 86.31012108654704 l -15.86118843736409 -13.635518415065661 a41.9166120844932,41.9166120844932 0 0,0 0.47507117749336525,-0.5430884802317298 l 15.62412539629288 13.906522451500335" fill="red" stroke="none" /><path d="M 84.31358615837235 86.03803664274999 l -10.280804224842756 -9.150607227344556 a34.7633044047814,34.7633044047814 0 0,0 0.4016922327152601,-0.44355859621719723 l 10.12176835151145 9.32621861083131" fill="red" stroke="none" /><path d="M 86.37877921826538 84.01681056812374 l -10.533751505966459 -12.360341884623153 a37.240011462256426,37.240011462256426 0 0,0 0.49146611906289084,-0.41158874090623226 l 10.319427849944457 12.539831782923198" fill="red" stroke="none" /><line stroke="#e1ed5e" stroke-width="0.3" x1="56.762969772571076" x2="54.21961505331055" y1="26.818313649435495" y2="22.513508569990535" /><path d="M 56.25429882871897 25.957352633546506 a86.0,86.0 0 0,1 42.265352541879196,-11.944610805530505" fill="none" id="id24" stroke="none" /><text fill="#e1ed5e" style="font-size:6.75px; font-family:Arial;" text-anchor="middle"><textPath startOffset="22.20632615414155" xlink:href="#id24">December</textPath></text><path d="M 90.58718382345135 81.22770947309562 l -17.13750611806127 -34.17789508695238 a59.23378909448174,59.23378909448174 0 0,0 0.9153841202382765,-0.4491750123313342 l 16.54665073081257 34.46782525941855" fill="red" stroke="none" /></svg>