<?xml version="1.0" encoding="utf-8" ?>
<svg baseProfile="full" height="200mm" version="1.1" viewBox="0,0,200,200" width="200mm" xmlns="http://www.w3.org/2000/svg" xmlns:ev="http://www.w3.org/2001/xml-events" xmlns:xlink="http://www.w3.org/1999/xlink"><defs /><rect fill="#1a1a1a" height="200" width="200" x="0" y="0" /><rect fill="#1a1a1a" height="200" width="180" x="10" y="0" /><text alignment-baseline="middle" fill="#e1ed5e" style="dominant-baseline: central; font-size:9.0px; font-family:Arial;" text-anchor="middle" x="100.0" y="100.0">2024</text><line stroke="#e1ed5e" stroke-width="0.3" x1="100.0" x2="100.0" y1="15.0" y2="10.0" /><path d="M 100.0 14.0 a86.0,86.0 0 0,1 42.35913384403234,11.155469271406648" fill="none" id="id49" stroke="none" /><text fill="#e1ed5e" style="font-size:6.75px; font-family:Arial;" text-anchor="middle"><textPath startOffset="22.145653131862478" xlink:href="#id49">January</textPath></text><path d="M 106.38641147887787 79.99465700312896 l 1.1161734171824311 -3.4963973318311066 a24.670236695263725,24.670236695263725 0 0,0 0.4023331011893394,0.13225488171175365 l -1.176029256019513 3.4767215287173316" fill="#ff2f04" stroke="none" /><path d="M 109.06512990194946 81.05736502329252 l 4.2111841153964225 -8.799755147525078 a30.755499080526903,30.755499080526903 0 0,0 0.47427872171707414,0.23199348920164903 l -4.361623086375563 8.726167908226207" fill="#ff820c" stroke="none" /><line stroke="#e1ed5e" stroke-width="0.3" x1="143.13028292997686" x2="145.6673583964461" y1="26.7553504044142" y2="22.446841604673864" /><path d="M 143.63769802327073 25.89364864446614 a86.0,86.0 0 0,1 29.32050498858742,28.57503671076993" fill="none" id="id50" stroke="none" /><text fill="#e1ed5e" style="font-size:6.75px; font-family:Arial;" text-anchor="middle"><textPath startOffset="20.669276256404974" xlink:href="#id50">February</textPath></text><path d="M 111.5731344415666 82.4767994020092 l 0.6216579430387771 -0.9412693591528201 a22.128027749934887,22.128027749934887 0 0,0 0.31517024938562344,0.2120606093879769 l -0.6377244805214014 0.9304590757077242" fill="#ff0b01" stroke="none" /><path d="M 117.81537515405839 88.88188828441811 l 1.8597533760206937 -1.1606236534018985 a23.192197501243065,23.192197501243065 0 0,0 0.20788164497196732,0.33955904414957566 l -1.8794029854480634 1.1285274931277682" fill="#ff1a02" stroke="none" /><line stroke="#e1ed5e" stroke-width="0.3" x1="172.87174338648825" x2="177.1583165268699" y1="56.24261187166439" y2="53.66864786411523" /><path d="M 173.72905801456457 55.72781907015455 a86.0,86.0 0 0,1 12.242430191666344,42.057860355516425" fill="none" id="id51" stroke="none" /><text fill="#e1ed5e" style="font-size:6.75px; font-family:Arial;" text-anchor="middle"><textPath startOffset="22.145653131862474" xlink:href="#id51">March</textPath></text><path d="M 119.16976305983485 91.42560881287824 l 7.876491688100691 -3.523054547157778 a29.628501298311797,29.628501298311797 0 0,0 0.20368341495678233,0.4660675140251371 l -7.935808985074443 3.3873249633567912" fill="#ff730a" stroke="none" /><path d="M 119.4528033332814 92.08871423366111 l 6.683027922057516 -2.717929275795561 a28.214568715815727,28.214568715815727 0 0,0 0.17861343573047028,0.450222536972753 l -6.72870003275411 2.6028057216092426" fill="#ff6008" stroke="none" /><path d="M 119.58574465831526 92.42381321644754 l 9.210867738735006 -3.5629615133181485 a30.875969787613553,30.875969787613553 0 0,0 0.1869750459265146,0.4959735232918527 l -9.270673468475962 3.404319709832138" fill="#ff840c" stroke="none" /><path d="M 119.94978838288452 93.4421083053983 l 19.128366466997573 -6.287873995337254 a41.13533617988524,41.13533617988524 0 0,0 0.21475639398475213,0.672721345413697 l -19.233487576759583 5.95858361623217" fill="#f9ff18" stroke="none" /><path d="M 120.43855184770803 95.1765574152323 l 4.523382964420292 -1.0675060630699384 a25.64764054521203,25.64764054521203 0 0,0 0.09744776867529195,0.42937284910332874 l -4.54104159465325 0.9896988800275835" fill="#ff3d05" stroke="none" /><path d="M 120.82617615685814 97.30363454192243 l 7.854750716303316 -1.0169547378132548 a28.920309700638498,28.920309700638498 0 0,0 0.05951787857076224,0.4928934146281751 l -7.871050681133743 0.8819676462616668" fill="#ff6909" stroke="none" /><path d="M 120.86939407059847 97.66154086499901 l 4.02669295000056 -0.451199343925314 a25.05189300963671,25.05189300963671 0 0,0 0.04421970179392891,0.42778550197655085 l -4.033845044276155 0.3820093196658318" fill="#ff3405" stroke="none" /><path d="M 120.9064616781168 98.02013634271609 l 1.7684976910362389 -0.16747857004124872 a22.776410187604082,22.776410187604082 0 0,0 0.033520777469005336,0.38956224551075885 l -1.771112091202985 0.13709527715482786" fill="#ff1402" stroke="none" /><line stroke="#e1ed5e" stroke-width="0.3" x1="184.99686870605535" x2="189.99668451229388" y1="99.2704041080226" y2="99.22748670261217" /><path d="M 185.99683186730306 99.26182062694052 a86.0,86.0 0 0,1 -10.086455211305974,41.156179273409016" fill="none" id="id52" stroke="none" /><text fill="#e1ed5e" style="font-size:6.75px; font-family:Arial;" text-anchor="middle"><textPath startOffset="21.40746469413373" xlink:href="#id52">April</textPath></text><path d="M 120.99303781780057 100.54070618675476 l 3.069351361646965 0.07905560333718871 a24.07036928880926,24.07036928880926 0 0,0 -0.014184683526215462,0.41297158401839995 l -3.0675419911239037 -0.13173345191969935" fill="#ff2603" stroke="none" /><path d="M 120.96210409425399 101.26102812881392 l 62.886312282761985 3.7830843864417396 a84.0,84.0 0 0,0 -0.09894415533973566,1.438626303382626 l -62.812104166257186 -4.86205411397871" fill="#4dd2ff" stroke="none" /><path d="M 120.9064616781168 101.97986365728391 l 17.144530917850062 1.623604903021988 a38.22123785545725,38.22123785545725 0 0,0 -0.06746523065195127,0.6526649070340665 l -17.114133294716446 -1.9176743323389858" fill="#ffe215" stroke="none" /><path d="M 120.86939407059847 102.33845913500097 l 5.4108311503688915 0.606294916312592 a26.44469349581304,26.44469349581304 0 0,0 -0.05442307059008008,0.4507010959035189 l -5.399625993519148 -0.6990896891395195" fill="#ff4806" stroke="none" /><path d="M 120.77682067341334 103.0534771498775 l 6.966664483678268 1.023859768833431 a28.04149862276347,28.04149862276347 0 0,0 -0.07408097627608302,0.47565300979910957 l -6.948062015263917 -1.1433009605639912" fill="#ff5e08" stroke="none" /><path d="M 120.65975698304385 103.76489593502545 l 5.187889458426512 0.9454062770158337 a26.273328176917673,26.273328176917673 0 0,0 -0.08466731103903032,0.4430151483564043 l -5.170895855105322 -1.0343239904055526" fill="#ff4506" stroke="none" /><path d="M 120.592083275326 104.11899336999214 l 10.13680445290379 2.02764478834677 a31.33760842284713,31.33760842284713 0 0,0 -0.11004318963763926,0.526596498499169 l -10.100503552441786 -2.2013577381313483" fill="#ff8a0c" stroke="none" /><path d="M 120.51834098615036 104.47187691870673 l 9.708168107927424 2.115850054059884 a30.936063076643805,30.936063076643805 0 0,0 -0.11754103903253187,0.5179075057545173 l -9.670416207337228 -2.282191893753418" fill="#ff840c" stroke="none" /><path d="M 120.26092885502905 105.52220625578681 l 6.866942167139727 1.8716156235893766 a28.11743210500146,28.11743210500146 0 0,0 -0.13092213858179366,0.4645964828871742 l -6.833801536483353 -1.9892200303795593" fill="#ff5f08" stroke="none" /><path d="M 120.16314734710363 105.8691983318838 l 10.263114998134611 2.987443199716336 a31.689076028191913,31.689076028191913 0 0,0 -0.1565194086347061,0.5210022061661571 l -10.210319269496276 -3.1631830094732165" fill="#ff8e0d" stroke="none" /><line stroke="#e1ed5e" stroke-width="0.3" x1="174.33088141563837" x2="178.70328620479359" y1="141.23008692659167" y2="143.65538615756765" /><path d="M 175.20536237346943 141.71514677278685 a86.0,86.0 0 0,1 -30.301960400862466,31.631185727798858" fill="none" id="id53" stroke="none" /><text fill="#e1ed5e" style="font-size:6.75px; font-family:Arial;" text-anchor="middle"><textPath startOffset="22.145653131862474" xlink:href="#id53">May</textPath></text><path d="M 118.18653347947321 110.5 l 3.2227172742196277 1.860636685792758 a24.721273371585518,24.721273371585518 0 0,0 -0.21534146755866498,0.3656968900561346 l -3.1903020965311972 -1.9156847441424423" fill="#ff3004" stroke="none" /><path d="M 116.79662413953412 112.60449989151573 l 3.5589952013564847 2.670736348967745 a25.449638130115307,25.449638130115307 0 0,0 -0.26521918961067775,0.3471804328507419 l -3.5126240343915027 -2.7314376950593644" fill="#ff3a05" stroke="none" /><path d="M 115.41159269507618 114.26474011684316 l 2.097666367986049 1.9415686738673803 a23.858302486918227,23.858302486918227 0 0,0 -0.28078287031416765,0.2981816780437681 l -2.0640276639356214 -1.9772918118556457" fill="#ff2303" stroke="none" /><path d="M 115.16444852881244 114.52719865689866 l 1.478896248874658 1.416749152435342 a23.048002020473074,23.048002020473074 0 0,0 -0.27615150073589956,0.2833557673744328 l -1.4543579469879513 -1.4419276118775122" fill="#ff1802" stroke="none" /><path d="M 114.91283532996324 114.78537596483092 l 3.2590390051659464 3.231184138311397 a25.589323062595202,25.589323062595202 0 0,0 -0.31195587916328593,0.30928960561920876 l -3.2030912058726955 -3.2866537541592673" fill="#ff3c05" stroke="none" /><path d="M 114.65682725009322 115.03919595460226 l 4.375774878173965 4.48993050973331 a27.269520058719998,27.269520058719998 0 0,0 -0.3380479223110755,0.3238422626206396 l -4.298054469997577 -4.56438490265953" fill="#ff5307" stroke="none" /><path d="M 114.39649973595853 115.28858382429668 l 1.470424218257331 1.5615395638116436 a23.14489001838946,23.14489001838946 0 0,0 -0.29159280214658934,0.26989394443911435 l -1.4434016447967744 -1.5865512543831377" fill="#ff1902" stroke="none" /><path d="M 114.13192950727249 115.5334660781643 l 4.078819014070208 4.483336600386105 a27.061111418040614,27.061111418040614 0 0,0 -0.34629843100270125,0.30966219238470843 l -4.001255556244129 -4.5526943226542" fill="#ff5007" stroke="none" /><path d="M 113.86319453409587 115.77377054828091 l 2.3510289564323026 2.6750393799870342 a24.561344245992597,24.561344245992597 0 0,0 -0.3190875578531092,0.275620232672481 l -2.3047619188163377 -2.715003745124233" fill="#ff2d04" stroke="none" /><path d="M 113.59037401385872 116.0094264158162 l 7.724770176949859 9.099759844788608 a32.936402452980595,32.936402452980595 0 0,0 -0.4341734066361022,0.3622028977281457 l -7.567422436151862 -9.231024926428624" fill="#ff9f0e" stroke="none" /><path d="M 113.31354834802062 116.24036423190432 l 0.9254490828134556 1.1288974051164071 a22.4597483879624,22.4597483879624 0 0,0 -0.300264621806443,0.24187192470993096 l -0.9059336906517601 -1.1446176236197416" fill="#ff1001" stroke="none" /><path d="M 113.03279911837588 116.46651593811092 l 4.795314370383326 6.058723056418098 a28.726782317703606,28.726782317703606 0 0,0 -0.38930269382128313,0.3027241293917239 l -4.6906017319268125 -6.1401482374306156" fill="#ff6709" stroke="none" /><path d="M 112.16784306229584 117.11559508785304 l 15.497786901538614 21.799578118039854 a47.74701861834369,47.74701861834369 0 0,0 -0.6721072897809688,0.4691830867497419 l -15.121284520583886 -22.062406020594718" fill="#adff20" stroke="none" /><path d="M 111.8722381534696 117.32195027204791 l 0.8156030477245461 1.1899892212224976 a22.442665130265265,22.442665130265265 0 0,0 -0.3196516402599186,0.2150758891663222 l -0.7950551193676241 -1.2038147844459408" fill="#ff0f01" stroke="none" /><path d="M 111.27062007382361 117.71928675628689 l 1.1759912756399056 1.8488536122649921 a23.191167533523277,23.191167533523277 0 0,0 -0.33774718699994144,0.21077922436190907 l -1.1440799598502494 -1.8687686334684488" fill="#ff1a02" stroke="none" /><line stroke="#e1ed5e" stroke-width="0.3" x1="143.1302829299769" x2="145.66735839644613" y1="173.24464959558577" y2="177.55315839532614" /><path d="M 143.63769802327073 174.10635135553383 a86.0,86.0 0 0,1 -40.68552437913181,11.842963189579606" fill="none" id="id54" stroke="none" /><text fill="#e1ed5e" style="font-size:6.75px; font-family:Arial;" text-anchor="middle"><textPath startOffset="21.407464694133747" xlink:href="#id54">June</textPath></text><path d="M 109.06512990194946 118.94263497670748 l 2.8554176451708466 5.966724662918411 a27.6147723416178,27.6147723416178 0 0,0 -0.4293588015908184,0.2009615987413254 l -2.752570129708522 -6.01486249323027" fill="#ff5808" stroke="none" /><path d="M 108.73861861582097 119.09545874513695 l 4.596755316559414 10.044739948935607 a32.046581375342335,32.046581375342335 0 0,0 -0.502195257853412,0.22462555117203062 l -4.4236466558503755 -10.122169251017487" fill="#ff930d" stroke="none" /><path d="M 106.72888874123015 119.89276391827305 l 3.252607410012635 9.61575585724102 a31.150971168796318,31.150971168796318 0 0,0 -0.5080237774049392,0.1669975062673978 l -3.087060894959962 -9.670174284910436" fill="#ff870c" stroke="none" /><path d="M 105.69591212413111 120.21278271476187 l 1.4132739643426255 5.015210722206371 a26.210535662139016,26.210535662139016 0 0,0 -0.4341196092741146,0.1183212299518153 l -1.326972954133816 -5.038732446302328" fill="#ff4406" stroke="none" /><path d="M 104.29559338865022 120.5559693870025 l 1.1795578043954371 5.644611098764053 a26.76654065018192,26.76654065018192 0 0,0 -0.4505745804770365,0.0901275351724956 l -1.082486738387442 -5.66402803059941" fill="#ff4c07" stroke="none" /><path d="M 103.58742460773223 120.69131181640829 l 0.5174360291037802 2.984433512596779 a24.028957483248227,24.028957483248227 0 0,0 -0.4070305121415535,0.06697671587961508 l -0.46612801390915437 -2.9928762269720646" fill="#ff2603" stroke="none" /><path d="M 102.15924093988457 120.88869738790638 l 1.5691654525678804 15.180252321447709 a36.26113825244864,36.26113825244864 0 0,0 -0.6197208738552448,0.05868821107545525 l -1.3083450153276204 -15.204952288028347" fill="#ffc912" stroke="none" /><path d="M 101.44090949804482 120.95050786540614 l 0.2557825925154811 3.719022758612481 a24.727808339186918,24.727808339186918 0 0,0 -0.423735309059159,0.025490863965404325 l -0.19190293132385688 -3.722865600402577" fill="#ff3004" stroke="none" /><line stroke="#e1ed5e" stroke-width="0.3" x1="101.45913802915013" x2="101.54496967792366" y1="184.9874750549273" y2="189.98673829345242" /><path d="M 101.47630435890484 185.9873277026323 a86.0,86.0 0 0,1 -42.54439059252881,-10.42667462771756" fill="none" id="id55" stroke="none" /><text fill="#e1ed5e" style="font-size:6.75px; font-family:Arial;" text-anchor="middle"><textPath startOffset="22.145653131862474" xlink:href="#id55">July</textPath></text><path d="M 99.27912038922189 120.98762331915562 l -0.8138781125450276 23.695173227833465 a44.709146586900076,44.709146586900076 0 0,0 -0.7668134698153496,-0.03293026978916553 l 1.220517342961216 -23.67771038961847" fill="#cfff1d" stroke="none" /><path d="M 98.91894614982273 120.97215588758144 l -0.9568379872710554 18.562401331735455 a39.58704608414955,39.58704608414955 0 0,0 -0.6783629578940161,-0.04080863102307711 l 1.2753452972975179 -18.543240722887685" fill="#fff216" stroke="none" /><path d="M 98.55909050195518 120.95050786540614 l -0.5793410776295532 8.423492120844687 a29.44339123777653,29.44339123777653 0 0,0 -0.5039460814200011,-0.03900861387967688 l 0.7238561538247905 -8.412305739969957" fill="#ff710a" stroke="none" /><path d="M 98.19965949673042 120.92268563240118 l -0.9538462880889499 11.085139722776926 a32.126101986535446,32.126101986535446 0 0,0 -0.5490510490335762,-0.05199570518970335 l 1.1439969005075414 -11.06713226208204" fill="#ff940d" stroke="none" /><path d="M 97.84075906011543 120.88869738790638 l -4.378680646875257 42.35976323964521 a63.58547153579631,63.58547153579631 0 0,0 -1.084780553860005,-0.12155192369572355 l 5.105197102336061 -42.278355555442516" fill="#34ff5b" stroke="none" /><path d="M 96.41257539226777 120.69131181640829 l -0.49603090844013603 2.8609744647983457 a23.903656582717062,23.903656582717062 0 0,0 -0.40370460623873206,-0.07356842736469182 l 0.5450702482299252 -2.8520378635022876" fill="#ff2403" stroke="none" /><path d="M 94.6519064749342 120.30758222061772 l -16.033508060979663 60.88184167072416 a83.95770029123224,83.95770029123224 0 0,0 -1.390573795049578,-0.37900707144775436 l 17.076263256963937 -60.59763410513226" fill="#4dd2ff" stroke="none" /><line stroke="#e1ed5e" stroke-width="0.3" x1="58.13341422392154" x2="55.67067388415222" y1="173.97424548756322" y2="178.32567169271397" /><path d="M 57.64086615596768 174.84453072859336 a86.0,86.0 0 0,1 -31.369924170532247,-30.572349798747897" fill="none" id="id56" stroke="none" /><text fill="#e1ed5e" style="font-size:6.75px; font-family:Arial;" text-anchor="middle"><textPath startOffset="22.145653131862474" xlink:href="#id56">August</textPath></text><path d="M 89.34428304082925 118.09573695890944 l -1.8230287791236544 3.095901419111149 a24.592776019510193,24.592776019510193 0 0,0 -0.3619438806166963,-0.21733690081795665 l 1.875905416297778 -3.0641505177572737" fill="#ff2e04" stroke="none" /><path d="M 82.98947788004972 112.3143062007846 l -4.001616673200576 2.8968618755190176 a25.940115861502886,25.940115861502886 0 0,0 -0.2580237402786398,-0.3629427039001696 l 4.050755512009176 -2.8277419449093437" fill="#ff4106" stroke="none" /><line stroke="#e1ed5e" stroke-width="0.3" x1="26.387840678322732" x2="22.057713659400548" y1="142.50000000000003" y2="145.00000000000006" /><path d="M 25.521815274538298 143.00000000000003 a86.0,86.0 0 0,1 -11.493303480769221,-40.785679425670985" fill="none" id="id57" stroke="none" /><text fill="#e1ed5e" style="font-size:6.75px; font-family:Arial;" text-anchor="middle"><textPath startOffset="21.40746469413373" xlink:href="#id57">September</textPath></text><path d="M 81.4637452351635 109.86951160357371 l -3.1417674968047598 1.672814231290527 a24.55935534280956,24.55935534280956 0 0,0 -0.1949450650868249,-0.37383286677431316 l 3.170020630866534 -1.618635121411711" fill="#ff2d04" stroke="none" /><path d="M 80.9802524753101 108.90220220490708 l -21.699433326683767 10.156430465508393 a44.95868290411435,44.95868290411435 0 0,0 -0.32116670834631217,-0.7018072190992758 l 21.870584499885133 -9.782434264194428" fill="#ccff1d" stroke="none" /><path d="M 80.28708602549918 107.23885506374661 l -19.85285034581626 7.290241637614345 a42.14907302905219,42.14907302905219 0 0,0 -0.2435811588386282,-0.6813398530624252 l 19.97507167469883 -6.9483668281709985" fill="#edff1a" stroke="none" /><path d="M 79.64726062577567 105.17358676015961 l -2.4654365343905793 0.6267043260275129 a23.54384268722919,23.54384268722919 0 0,0 -0.09620739887154339,-0.3925590182512614 l 2.475831459778416 -0.5842894831681519" fill="#ff1f03" stroke="none" /><path d="M 79.56144815229197 104.8234425847677 l -2.5103980421138905 0.5924471024793998 a23.57935881549766,23.57935881549766 0 0,0 -0.08958936785291438,-0.3947472851076727 l 2.520198271524471 -0.5492654834327008" fill="#ff1f03" stroke="none" /><line stroke="#e1ed5e" stroke-width="0.3" x1="15.003131293944662" x2="10.003315487706104" y1="100.72959589197737" y2="100.7725132973878" /><path d="M 14.003168132696942 100.73817937305945 a86.0,86.0 0 0,1 10.791469493833604,-42.45332614584628" fill="none" id="id58" stroke="none" /><text fill="#e1ed5e" style="font-size:6.75px; font-family:Arial;" text-anchor="middle"><textPath startOffset="22.145653131862435" xlink:href="#id58">October</textPath></text><path d="M 79.00696218219943 99.45929381324524 l -2.087265438980492 -0.05376055366790107 a23.087957664775104,23.087957664775104 0 0,0 0.013605747747859873,-0.3961165005060405 l 2.0860350042357814 0.08958331873808013" fill="#ff1802" stroke="none" /><path d="M 80.28708602549916 92.7611449362534 l -6.302471005432791 -2.3143546515146065 a27.713968887871637,27.713968887871637 0 0,0 0.16782697486945872,-0.44518098988531907 l 6.261813346748896 2.4222039215940705" fill="#ff5908" stroke="none" /><path d="M 80.5471966667186 92.08871423366112 l -5.342342806977567 -2.1726843110285556 a26.76725097274729,26.76725097274729 0 0,0 0.17675837727265972,-0.42415575882652407 l 5.304258585168428 2.2640725792963434" fill="#ff4c07" stroke="none" /><path d="M 81.1358732173502 90.77261029715801 l -3.2665389852565787 -1.5978279060449847 a24.636389825023876,24.636389825023876 0 0,0 0.18909025953079314,-0.3783071856048203 l 3.238628812514041 1.6536669478135753" fill="#ff2e04" stroke="none" /><path d="M 81.29705330413844 90.45014215332179 l -0.35563014581045926 -0.18158728641593258 a21.399307830122414,21.399307830122414 0 0,0 0.1698615211810854,-0.32573186394581943 l 0.3524605556544339 0.18766539346623853" fill="#ff0000" stroke="none" /><path d="M 81.46374523516351 90.13048839642627 l -4.353889473535049 -2.3182009108575565 a25.93258644230997,25.93258644230997 0 0,0 0.21259120726407482,-0.3911438767192044 l 4.313452916655624 2.3925996210513807" fill="#ff4106" stroke="none" /><line stroke="#e1ed5e" stroke-width="0.3" x1="26.387840678322718" x2="22.05771365940052" y1="57.49999999999999" y2="54.99999999999999" /><path d="M 25.521815274538284 56.99999999999999 a86.0,86.0 0 0,1 29.574782752854787,-30.34633250058573" fill="none" id="id59" stroke="none" /><text fill="#e1ed5e" style="font-size:6.75px; font-family:Arial;" text-anchor="middle"><textPath startOffset="21.40746469413373" xlink:href="#id59">November</textPath></text><path d="M 82.18462484594161 88.88188828441811 l -6.42314536809169 -4.008517763466668 a28.571328224272513,28.571328224272513 0 0,0 0.2632403113403147,-0.41385749248052384 l 6.353387365125486 4.118188930625863" fill="#ff6509" stroke="none" /><path d="M 83.2033758604659 87.39550010848427 l -0.30691131544443095 -0.2303119728159603 a21.383716249812554,21.383716249812554 0 0,0 0.22284685800419318,-0.29171369060773156 l 0.302912480085931 0.23554657666457618" fill="#ff0000" stroke="none" /><path d="M 86.13680546590413 84.22622945171909 l -6.220001913276875 -7.07722038730638 a30.4220736683425,30.4220736683425 0 0,0 0.39522695070905456,-0.34138762678741585 l 6.097595482804972 7.182952146558507" fill="#ff7e0b" stroke="none" /><line stroke="#e1ed5e" stroke-width="0.3" x1="56.869717070023135" x2="54.33264160355391" y1="26.7553504044142" y2="22.446841604673864" /><path d="M 56.362301976729285 25.89364864446614 a86.0,86.0 0 0,1 42.16139366436587,-11.88097634709845" fill="none" id="id60" stroke="none" /><text fill="#e1ed5e" style="font-size:6.75px; font-family:Arial;" text-anchor="middle"><textPath startOffset="22.145653131862474" xlink:href="#id60">December</textPath></text><path d="M 91.92203290615298 80.6158196554323 l -0.8819521305342676 -2.116364049882536 a23.292779176499373,23.292779176499373 0 0,0 0.37040569964134107,-0.1506407734215779 l 0.8454919697024856 2.1311920798834048" fill="#ff1b02" stroke="none" /><path d="M 92.93061703081487 80.22567764915836 l -4.998180118752342 -13.980799352163174 a35.847375358120956,35.847375358120956 0 0,0 0.5812297331798253,-0.20218187265324283 l 4.757444613527512 14.064539657385003" fill="#ffc412" stroke="none" /></svg>