<?xml version="1.0" encoding="utf-8" ?>
<svg baseProfile="full" height="200mm" version="1.1" viewBox="0,0,200,200" width="200mm" xmlns="http://www.w3.org/2000/svg" xmlns:ev="http://www.w3.org/2001/xml-events" xmlns:xlink="http://www.w3.org/1999/xlink"><defs /><rect fill="#1a1a1a" height="200" width="200" x="0" y="0" /><rect fill="#1a1a1a" height="200" width="180" x="10" y="0" /><text alignment-baseline="middle" fill="#e1ed5e" style="dominant-baseline: central; font-size:9.0px; font-family:Arial;" text-anchor="middle" x="100.0" y="100.0">2024</text><line stroke="#e1ed5e" stroke-width="0.3" x1="100.0" x2="100.0" y1="15.0" y2="10.0" /><path d="M 100.0 14.0 a86.0,86.0 0 0,1 42.35913384403234,11.155469271406648" fill="none" id="id49" stroke="none" /><text fill="#e1ed5e" style="font-size:6.75px; font-family:Arial;" text-anchor="middle"><textPath startOffset="22.145653131862478" xlink:href="#id49">January</textPath></text><path d="M 106.38641147887787 79.99465700312896 l 0.9737928979258047 -3.050392383164397 a24.202056573409987,24.202056573409987 0 0,0 0.39469781326456727,0.12974501091479257 l -1.0260134488381143 3.033226450847583" fill="#ff2503" stroke="none" /><path d="M 109.06512990194946 81.05736502329252 l 3.6978275600928243 -7.727037387802209 a29.566273136940897,29.566273136940897 0 0,0 0.4559397391865039,0.2230229738678132 l -3.829927548541395 7.662420663837175" fill="#ff6f0a" stroke="none" /><line stroke="#e1ed5e" stroke-width="0.3" x1="143.13028292997686" x2="145.6673583964461" y1="26.7553504044142" y2="22.446841604673864" /><path d="M 143.63769802327073 25.89364864446614 a86.0,86.0 0 0,1 29.32050498858742,28.57503671076993" fill="none" id="id50" stroke="none" /><text fill="#e1ed5e" style="font-size:6.75px; font-family:Arial;" text-anchor="middle"><textPath startOffset="20.669276256404974" xlink:href="#id50">February</textPath></text><path d="M 111.5731344415666 82.4767994020092 l 1.0807428214922796 -1.6363823777790842 a22.96105898241563,22.96105898241563 0 0,0 0.3270351414697244,0.22004383829546975 l -1.1086742510590049 1.6175888654264958" fill="#ff1302" stroke="none" /><path d="M 117.81537515405839 88.88188828441811 l 1.5890240900765682 -0.9916685559213486 a22.87307343252922,22.87307343252922 0 0,0 0.20502119863647775,0.33488672003144115 l -1.6058132531684484 0.9642447197653526" fill="#ff1202" stroke="none" /><line stroke="#e1ed5e" stroke-width="0.3" x1="172.87174338648825" x2="177.1583165268699" y1="56.24261187166439" y2="53.66864786411523" /><path d="M 173.72905801456457 55.72781907015455 a86.0,86.0 0 0,1 12.242430191666344,42.057860355516425" fill="none" id="id51" stroke="none" /><text fill="#e1ed5e" style="font-size:6.75px; font-family:Arial;" text-anchor="middle"><textPath startOffset="22.145653131862474" xlink:href="#id51">March</textPath></text><path d="M 119.16976305983485 91.42560881287824 l 6.700938200147517 -2.9972444244330383 a28.34071160733012,28.34071160733012 0 0,0 0.19483040550603994,0.44581009587833303 l -6.751402487670527 2.881772258778856" fill="#ff5f08" stroke="none" /><path d="M 119.4528033332814 92.08871423366111 l 5.811716075363426 -2.3635743330814702 a27.273956277233623,27.273956277233623 0 0,0 0.17265885173387743,0.43521309547917536 l -5.851433602063428 2.2634602203887297" fill="#ff5007" stroke="none" /><path d="M 119.58574465831526 92.42381321644754 l 8.047592749426862 -3.112981757460779 a29.6286965691761,29.6286965691761 0 0,0 0.17942195629388352,0.4759380556802682 l -8.099845389535187 2.974375421586353" fill="#ff700a" stroke="none" /><path d="M 119.94978838288452 93.4421083053983 l 19.459674964199962 -6.396781678990607 a41.484085665730376,41.484085665730376 0 0,0 0.21657712012776006,0.6784247441243363 l -19.56661680010498 6.061787901174883" fill="#f7ff19" stroke="none" /><path d="M 120.43855184770803 95.1765574152323 l 5.442305420956087 -1.2843692607162605 a26.591805852570424,26.591805852570424 0 0,0 0.10103510850487611,0.4451793303010962 l -5.46355139101863 1.190755596476138" fill="#ff4706" stroke="none" /><path d="M 120.82617615685814 97.30363454192243 l 6.831233488026274 -0.8844399410840093 a27.888249776054604,27.888249776054604 0 0,0 0.05739390348526106,0.4753038540185312 l -6.845409477771199 0.7670424101420652" fill="#ff5808" stroke="none" /><path d="M 120.86939407059847 97.66154086499901 l 7.000344077957394 -0.7844031552555789 a28.04415399602877,28.04415399602877 0 0,0 0.04950141397659574,0.47888127616080833 l -7.012777884415656 0.6641173568118391" fill="#ff5b08" stroke="none" /><path d="M 120.9064616781168 98.02013634271609 l 3.0745061746824125 -0.2911589312944423 a24.08826192889023,24.08826192889023 0 0,0 0.0354514719871394,0.41199984238854803 l -3.0790512693672927 0.23833804153023228" fill="#ff2303" stroke="none" /><line stroke="#e1ed5e" stroke-width="0.3" x1="184.99686870605535" x2="189.99668451229388" y1="99.2704041080226" y2="99.22748670261217" /><path d="M 185.99683186730306 99.26182062694052 a86.0,86.0 0 0,1 -10.086455211305974,41.156179273409016" fill="none" id="id52" stroke="none" /><text fill="#e1ed5e" style="font-size:6.75px; font-family:Arial;" text-anchor="middle"><textPath startOffset="21.40746469413373" xlink:href="#id52">April</textPath></text><path d="M 120.99303781780057 100.54070618675476 l 5.33602037564668 0.1374369567092921 a26.33779002644222,26.33779002644222 0 0,0 -0.015520875970884541,0.45187336913109416 l -5.332874812678949 -0.22901659040449696" fill="#ff4306" stroke="none" /><path d="M 120.96210409425399 101.26102812881392 l 61.94406967082471 3.7264014107024055 a83.05605397427128,83.05605397427128 0 0,0 -0.0978322750754258,1.4224598083637352 l -61.870973434584215 -4.789204643220485" fill="#4cdbff" stroke="none" /><path d="M 120.9064616781168 101.97986365728391 l 14.376360629956785 1.3614562987026977 a35.44068240132192,35.44068240132192 0 0,0 -0.06255720502067265,0.6051842112533781 l -14.350871032454446 -1.6080450322390072" fill="#ffbc11" stroke="none" /><path d="M 120.86939407059847 102.33845913500097 l 4.441131284069913 0.497638023693426 a25.468925003283225,25.468925003283225 0 0,0 -0.05241494304052333,0.4340709190780268 l -4.431934254769726 -0.5738026196948613" fill="#ff3705" stroke="none" /><path d="M 120.77682067341334 103.0534771498775 l 12.111439602422758 1.779964541227546 a33.24153760812594,33.24153760812594 0 0,0 -0.08781861454897574,0.5638585022278381 l -12.079099495735514 -1.9876112253868345" fill="#ffa00e" stroke="none" /><path d="M 120.65975698304385 103.76489593502545 l 9.019066439468299 1.6435743461816783 a30.16760034419967,30.16760034419967 0 0,0 -0.09721682705914289,0.508679519094343 l -8.989523320126997 -1.7981564303093356" fill="#ff770b" stroke="none" /><path d="M 120.592083275326 104.11899336999214 l 8.673902819525406 1.7350234907213682 a29.84572759222924,29.84572759222924 0 0,0 -0.104804394036353,0.501526965081659 l -8.642840714664688 -1.8836669070884362" fill="#ff730a" stroke="none" /><path d="M 120.51834098615036 104.47187691870673 l 8.443999393777833 1.8403303666751893 a29.642218558948116,29.642218558948116 0 0,0 -0.11262509906370907,0.49624696720008704 l -8.41116343315646 -1.9850116678142933" fill="#ff700a" stroke="none" /><path d="M 120.26092885502905 105.52220625578681 l 5.97249207168851 1.6278292726312469 a27.19035456878015,27.19035456878015 0 0,0 -0.1266054224172459,0.4492779800778259 l -5.943668157196685 -1.730115176612081" fill="#ff4f07" stroke="none" /><path d="M 120.16314734710363 105.8691983318838 l 8.935303001464636 2.600936479225094 a30.30615443117869,30.30615443117869 0 0,0 -0.14968885067334092,0.4982655002313509 l -8.889337830787666 -2.7539395830471682" fill="#ff790b" stroke="none" /><line stroke="#e1ed5e" stroke-width="0.3" x1="174.33088141563837" x2="178.70328620479359" y1="141.23008692659167" y2="143.65538615756765" /><path d="M 175.20536237346943 141.71514677278685 a86.0,86.0 0 0,1 -30.301960400862466,31.631185727798858" fill="none" id="id53" stroke="none" /><text fill="#e1ed5e" style="font-size:6.75px; font-family:Arial;" text-anchor="middle"><textPath startOffset="22.145653131862474" xlink:href="#id53">May</textPath></text><path d="M 118.18653347947321 110.5 l 5.602644667880935 3.2346884071748776 a27.469376814349758,27.469376814349758 0 0,0 -0.23927958027125934,0.40634903881342915 l -5.5462913774799105 -3.330388614281856" fill="#ff5307" stroke="none" /><path d="M 116.79662413953412 112.60449989151573 l 6.187258698553412 4.643034275627923 a28.73562780176765,28.73562780176765 0 0,0 -0.29946358685235835,0.3920074481000215 l -6.10664313434675 -4.748562636968822" fill="#ff6409" stroke="none" /><path d="M 115.41159269507618 114.26474011684316 l 3.6467608826889806 3.375387430038146 a25.969115136356777,25.969115136356777 0 0,0 -0.3056245385229508,0.3245626688200695 l -3.5882805104297697 -3.4374915588027126" fill="#ff3e05" stroke="none" /><path d="M 115.16444852881244 114.52719865689866 l 2.571038498905581 2.4629967227077825 a24.5604201744912,24.5604201744912 0 0,0 -0.29427266119923723,0.30194967439692244 l -2.5283790365555365 -2.506769089172442" fill="#ff2a04" stroke="none" /><path d="M 114.91283532996324 114.78537596483092 l 3.649803534317475 3.618608819761274 a26.139590998277043,26.139590998277043 0 0,0 -0.3186641190503315,0.3159405104671259 l -3.5871474951371787 -3.680729340457062" fill="#ff4006" stroke="none" /><path d="M 114.65682725009322 115.03919595460226 l 3.8131326160465875 3.912609982712668 a26.46337782185903,26.46337782185903 0 0,0 -0.32805454114150445,0.3142688295196181 l -3.745405589039771 -3.9774909425378664" fill="#ff4506" stroke="none" /><path d="M 114.39649973595853 115.28858382429668 l 1.276250213769023 1.355333499937382 a22.861650747105372,22.861650747105372 0 0,0 -0.2880243888715181,0.26659107438502533 l -1.2527960535835378 -1.377042320454787" fill="#ff1202" stroke="none" /><path d="M 114.13192950727249 115.5334660781643 l 3.561728556703949 3.914963606825122 a26.292716727202162,26.292716727202162 0 0,0 -0.3364653583059617,0.30086939814554875 l -3.4939981715746096 -3.975528534854057" fill="#ff4206" stroke="none" /><path d="M 113.86319453409587 115.77377054828091 l 2.044062299441479 2.3257676734234876 a24.096350425055228,24.096350425055228 0 0,0 -0.3130466123228621,0.2704022078024076 l -2.003836207355761 -2.3605140136906124" fill="#ff2303" stroke="none" /><path d="M 113.59037401385872 116.0094264158162 l 10.014665732251585 11.797251051073566 a36.47477502553076,36.47477502553076 0 0,0 -0.480816851558935,0.40111451841437773 l -9.810674546530754 -11.967427753399814" fill="#ffca12" stroke="none" /><path d="M 113.31354834802062 116.24036423190432 l 0.39809980623882363 0.4856170334883152 a21.627938977084064,21.627938977084064 0 0,0 -0.2891441526961885,0.2329140619714148 l -0.3897048831873826 -0.49237938925313357" fill="#ff0000" stroke="none" /><path d="M 113.03279911837588 116.46651593811092 l 4.168117892214788 5.266280795144581 a27.716168563750443,27.716168563750443 0 0,0 -0.37560694981223897,0.292074236012324 l -4.077100997767318 -5.337056082777699" fill="#ff5608" stroke="none" /><path d="M 112.16784306229584 117.11559508785304 l 14.8992032656257 20.957595271445904 a46.71394675097861,46.71394675097861 0 0,0 -0.6575653319160445,0.45903167077466245 l -14.537242842535896 -21.210271758025687" fill="#baff1f" stroke="none" /><path d="M 111.8722381534696 117.32195027204791 l 1.0635746908320531 1.5517872592386872 a22.881285417185286,22.881285417185286 0 0,0 -0.3258989238758108,0.21927934039050376 l -1.036779478859239 -1.5698162736863122" fill="#ff1202" stroke="none" /><path d="M 111.27062007382361 117.71928675628689 l 2.044442837925907 3.214203714149 a24.809311228240055,24.809311228240055 0 0,0 -0.3613132054102812,0.22548616278514677 l -1.9889655037259106 -3.248825673775694" fill="#ff2e04" stroke="none" /><line stroke="#e1ed5e" stroke-width="0.3" x1="143.1302829299769" x2="145.66735839644613" y1="173.24464959558577" y2="177.55315839532614" /><path d="M 143.63769802327073 174.10635135553383 a86.0,86.0 0 0,1 -40.68552437913181,11.842963189579606" fill="none" id="id54" stroke="none" /><text fill="#e1ed5e" style="font-size:6.75px; font-family:Arial;" text-anchor="middle"><textPath startOffset="21.407464694133747" xlink:href="#id54">June</textPath></text><path d="M 109.06512990194946 118.94263497670748 l 3.4994469395723415 7.312498189619938 a29.106710717428932,29.106710717428932 0 0,0 -0.4525556929198921,0.2118189151630394 l -3.3734025327809434 -7.371493336353511" fill="#ff6909" stroke="none" /><path d="M 108.73861861582097 119.09545874513695 l 4.138472087742048 9.043308387014987 a30.945269116704466,30.945269116704466 0 0,0 -0.4849368243491967,0.21690607338400705 l -3.9826218605372237 -9.113018211308844" fill="#ff820c" stroke="none" /><path d="M 106.72888874123015 119.89276391827305 l 4.038528216051426 11.939191071319232 a33.60372935243027,33.60372935243027 0 0,0 -0.5480244396879427,0.18014651847392957 l -3.832981038715749 -12.006758511195182" fill="#ffa50f" stroke="none" /><path d="M 105.69591212413111 120.21278271476187 l 1.2299931962451935 4.3648119343365215 a25.53480611326835,25.53480611326835 0 0,0 -0.4229276423676752,0.11527080960299906 l -1.154884152942823 -4.385283238083662" fill="#ff3805" stroke="none" /><path d="M 104.29559338865022 120.5559693870025 l 2.050643193593115 9.813070022535502 a31.02504268193481,31.02504268193481 0 0,0 -0.5222600773626651,0.10446664221905165 l -1.881886630699491 -9.846826061417415" fill="#ff830c" stroke="none" /><path d="M 103.58742460773223 120.69131181640829 l 0.8995546188983529 5.188391994468201 a26.2657962361492,26.2657962361492 0 0,0 -0.44492069625820047,0.07321153125710306 l -0.8103564195870802 -5.203069524220975" fill="#ff4206" stroke="none" /><path d="M 102.15924093988457 120.88869738790638 l 1.7015403863013479 16.460859724459613 a37.54856919961817,37.54856919961817 0 0,0 -0.641723708571949,0.06077190239938815 l -1.4187171143443837 -16.487643382364187" fill="#ffd714" stroke="none" /><path d="M 101.44090949804482 120.95050786540614 l 0.3295369898874235 4.791395509535322 a25.802714394641775,25.802714394641775 0 0,0 -0.4421548812011802,0.026598939685635748 l -0.2472377565537782 -4.796346427045649" fill="#ff3c05" stroke="none" /><line stroke="#e1ed5e" stroke-width="0.3" x1="101.45913802915013" x2="101.54496967792366" y1="184.9874750549273" y2="189.98673829345242" /><path d="M 101.47630435890484 185.9873277026323 a86.0,86.0 0 0,1 -42.54439059252881,-10.42667462771756" fill="none" id="id55" stroke="none" /><text fill="#e1ed5e" style="font-size:6.75px; font-family:Arial;" text-anchor="middle"><textPath startOffset="22.145653131862474" xlink:href="#id55">July</textPath></text><path d="M 99.27912038922189 120.98762331915562 l -0.6090834932457829 17.73280133746599 a38.74325860646178,38.74325860646178 0 0,0 -0.6644916047822562,-0.028536128640755956 l 0.9134008586288779 -17.719732640399403" fill="#ffe615" stroke="none" /><path d="M 98.91894614982273 120.97215588758144 l -1.0970205999427087 21.281906567479528 a42.31016192673408,42.31016192673408 0 0,0 -0.7250262253107617,-0.04361577731575345 l 1.4621911773859169 -21.25993881233908" fill="#edff1a" stroke="none" /><path d="M 98.55909050195518 120.95050786540614 l -0.6706609856802038 9.751263541936263 a30.774299300819926,30.774299300819926 0 0,0 -0.5267255872753074,-0.04077189170054141 l 0.8379555677307473 -9.738313883240668" fill="#ff800b" stroke="none" /><path d="M 98.19965949673042 120.92268563240118 l -0.8060471632009472 9.367489855343692 a30.402104988739026,30.402104988739026 0 0,0 -0.5195870835463353,-0.04920543702449221 l 0.9667338101322978 -9.352272662814016" fill="#ff7b0b" stroke="none" /><path d="M 97.84075906011543 120.88869738790638 l -4.205252395294912 40.68200222703252 a61.898770799480175,61.898770799480175 0 0,0 -1.0560051101187875,-0.11832757520468815 l 4.902993407014499 -40.603818891320856" fill="#32ff46" stroke="none" /><path d="M 96.41257539226777 120.69131181640829 l -0.43004246244435884 2.480370644041826 a23.517374634679882,23.517374634679882 0 0,0 -0.3971807590946833,-0.07237956509426363 l 0.47255795509009935 -2.4726229050161965" fill="#ff1b02" stroke="none" /><path d="M 94.6519064749342 120.30758222061772 l -16.044280575197426 60.922746661853175 a84.0,84.0 0 0,0 -1.3912743962612195,-0.37919802342342246 l 17.08773637239334 -60.63834814428561" fill="#4dd2ff" stroke="none" /><line stroke="#e1ed5e" stroke-width="0.3" x1="58.13341422392154" x2="55.67067388415222" y1="173.97424548756322" y2="178.32567169271397" /><path d="M 57.64086615596768 174.84453072859336 a86.0,86.0 0 0,1 -31.369924170532247,-30.572349798747897" fill="none" id="id56" stroke="none" /><text fill="#e1ed5e" style="font-size:6.75px; font-family:Arial;" text-anchor="middle"><textPath startOffset="22.145653131862474" xlink:href="#id56">August</textPath></text><path d="M 89.34428304082925 118.09573695890944 l -1.5694431218459943 2.665257533933684 a24.093016235796373,24.093016235796373 0 0,0 -0.3545886721054636,-0.212920309439267 l 1.6149645505088852 -2.637923223958498" fill="#ff2303" stroke="none" /><path d="M 82.98947788004972 112.3143062007846 l -1.685884519500257 1.2204503804113374 a23.08127502847096,23.08127502847096 0 0,0 -0.22958713619643029,-0.32294305904504805 l 1.706586754226648 -1.1913300946567853" fill="#ff1502" stroke="none" /><line stroke="#e1ed5e" stroke-width="0.3" x1="26.387840678322732" x2="22.057713659400548" y1="142.50000000000003" y2="145.00000000000006" /><path d="M 25.521815274538298 143.00000000000003 a86.0,86.0 0 0,1 -11.493303480769221,-40.785679425670985" fill="none" id="id57" stroke="none" /><text fill="#e1ed5e" style="font-size:6.75px; font-family:Arial;" text-anchor="middle"><textPath startOffset="21.40746469413373" xlink:href="#id57">September</textPath></text><path d="M 81.4637452351635 109.86951160357371 l -2.7323743680086747 1.4548354493662943 a24.095547749863282,24.095547749863282 0 0,0 -0.19126349445385843,-0.3667729696523162 l 2.7569459314374822 -1.407716236609475" fill="#ff2303" stroke="none" /><path d="M 80.9802524753101 108.90220220490708 l -19.28640179841164 9.027009869172446 a42.29441714412283,42.29441714412283 0 0,0 -0.30213426769138463,-0.6602179014595914 l 19.43852053095808 -8.694602985498166" fill="#edff1a" stroke="none" /><path d="M 80.28708602549918 107.23885506374661 l -17.82935076102058 6.547184561687636 a39.99345609004075,39.99345609004075 0 0,0 -0.2311237633543985,-0.6464943007658756 l 17.939114694418922 -6.240155304540838" fill="#fff517" stroke="none" /><path d="M 79.64726062577567 105.17358676015961 l -4.286123689440609 1.0895158810994936 a25.42243158639588,25.42243158639588 0 0,0 -0.10388389220947325,-0.4238817306797899 l 4.304195108166376 -1.015778325811604" fill="#ff3605" stroke="none" /><path d="M 79.56144815229197 104.8234425847677 l -2.1836165814372297 0.5153275675394938 a23.243600649980692,23.243600649980692 0 0,0 -0.08831366048379165,-0.3891262830555116 l 2.1921411034786877 -0.477766950544956" fill="#ff1702" stroke="none" /><line stroke="#e1ed5e" stroke-width="0.3" x1="15.003131293944662" x2="10.003315487706104" y1="100.72959589197737" y2="100.7725132973878" /><path d="M 14.003168132696942 100.73817937305945 a86.0,86.0 0 0,1 10.791469493833604,-42.45332614584628" fill="none" id="id58" stroke="none" /><text fill="#e1ed5e" style="font-size:6.75px; font-family:Arial;" text-anchor="middle"><textPath startOffset="22.145653131862435" xlink:href="#id58">October</textPath></text><path d="M 79.00696218219943 99.45929381324524 l -3.628679026765673 -0.09346189991882785 a24.62988245071731,24.62988245071731 0 0,0 0.014514404978971737,-0.4225710643578624 l 3.626539934789851 0.15573922884082878" fill="#ff2b04" stroke="none" /><path d="M 80.28708602549916 92.7611449362534 l -5.547173165434057 -2.0369988227018774 a26.909356507353447,26.909356507353447 0 0,0 0.16295449838255693,-0.43225616711878173 l 5.511387983237064 2.1319232700148043" fill="#ff4b07" stroke="none" /><path d="M 80.5471966667186 92.08871423366112 l -5.959565601549454 -2.423703448255025 a27.43356515193985,27.43356515193985 0 0,0 0.1811584037523215,-0.4347142206043151 l 5.917081353260654 2.5256501783006033" fill="#ff5207" stroke="none" /><path d="M 81.1358732173502 90.77261029715801 l -2.8403846470471916 -1.3893744643605572 a24.16198455805821,24.16198455805821 0 0,0 0.18544908419258688,-0.3710223958017465 l 2.8161156496428608 1.437928716326074" fill="#ff2403" stroke="none" /><path d="M 81.29705330413844 90.45014215332179 l -0.6182575667129058 -0.31568671882318283 a21.69419055254239,21.69419055254239 0 0,0 0.1722022150109003,-0.3302204529965395 l 0.6127472827270656 0.32625341492420895" fill="#ff0100" stroke="none" /><path d="M 81.46374523516351 90.13048839642627 l -7.569170227428908 -4.030156810897359 a29.57522605254337,29.57522605254337 0 0,0 0.24245298576774182,-0.4460861857637437 l 7.498871892045816 4.159497830135722" fill="#ff6f0a" stroke="none" /><line stroke="#e1ed5e" stroke-width="0.3" x1="26.387840678322718" x2="22.05771365940052" y1="57.49999999999999" y2="54.99999999999999" /><path d="M 25.521815274538284 56.99999999999999 a86.0,86.0 0 0,1 29.574782752854787,-30.34633250058573" fill="none" id="id59" stroke="none" /><text fill="#e1ed5e" style="font-size:6.75px; font-family:Arial;" text-anchor="middle"><textPath startOffset="21.40746469413373" xlink:href="#id59">November</textPath></text><path d="M 82.18462484594161 88.88188828441811 l -11.166539936792026 -6.968746794281152 a34.16263826300697,34.16263826300697 0 0,0 0.3147555291083946,-0.4948479712621851 l 11.045266716057741 7.159408440222009" fill="#ffac0f" stroke="none" /><path d="M 83.2033758604659 87.39550010848427 l -0.5335606256069836 -0.4003938405546076 a21.667084828752824,21.667084828752824 0 0,0 0.22579993672709783,-0.2955793654511143 l 0.526608711525579 0.40949411924660617" fill="#ff0100" stroke="none" /><path d="M 86.13680546590413 84.22622945171909 l -5.390181033703063 -6.133036554469209 a29.165059029458867,29.165059029458867 0 0,0 0.37889650367448563,-0.3272817755859549 l 5.284105050265729 6.224662462519874" fill="#ff6a09" stroke="none" /><line stroke="#e1ed5e" stroke-width="0.3" x1="56.869717070023135" x2="54.33264160355391" y1="26.7553504044142" y2="22.446841604673864" /><path d="M 56.362301976729285 25.89364864446614 a86.0,86.0 0 0,1 42.16139366436587,-11.88097634709845" fill="none" id="id60" stroke="none" /><text fill="#e1ed5e" style="font-size:6.75px; font-family:Arial;" text-anchor="middle"><textPath startOffset="22.145653131862474" xlink:href="#id60">December</textPath></text><path d="M 91.92203290615298 80.6158196554323 l -1.5332602834856361 -3.6792665165579823 a24.985961514713754,24.985961514713754 0 0,0 0.3973309705098092,-0.16159104668178673 l 1.4698748517853861 3.70504481981906" fill="#ff3004" stroke="none" /><path d="M 92.93061703081487 80.22567764915836 l -4.312329292549731 -12.062352525751562 a33.81001687676045,33.81001687676045 0 0,0 0.5481959806475202,-0.1906910187507655 l 4.104627539857207 12.134601977070913" fill="#ffa70f" stroke="none" /></svg>