<?xml version="1.0" encoding="utf-8" ?>
<svg baseProfile="full" height="200mm" version="1.1" viewBox="0,0,200,200" width="200mm" xmlns="http://www.w3.org/2000/svg" xmlns:ev="http://www.w3.org/2001/xml-events" xmlns:xlink="http://www.w3.org/1999/xlink"><defs /><rect fill="#1a1a1a" height="200" width="200" x="0" y="0" /><rect fill="#1a1a1a" height="200" width="180" x="10" y="0" /><text alignment-baseline="middle" fill="#e1ed5e" style="dominant-baseline: central; font-size:9.0px; font-family:Arial;" text-anchor="middle" x="100.0" y="100.0">2023</text><line stroke="#e1ed5e" stroke-width="0.3" x1="100.0" x2="100.0" y1="15.0" y2="10.0" /><path d="M 100.0 14.0 a86.0,86.0 0 0,1 42.46469731375804,11.215312516191453" fill="none" id="id37" stroke="none" /><text fill="#e1ed5e" style="font-size:6.75px; font-family:Arial;" text-anchor="middle"><textPath startOffset="22.20632615414155" xlink:href="#id37">January</textPath></text><path d="M 105.36241919743992 79.69619591428918 l 3.1652015578505472 -11.984447682319443 a33.395381686421416,33.395381686421416 0 0,0 0.5545257182969038,0.15157282614090806 l -3.371025165371162 11.928188315352243" fill="#ff820c" stroke="none" /><path d="M 106.40334571778207 80.00007090966166 l 8.389696918565356 -26.20401128659595 a48.51430940244427,48.51430940244427 0 0,0 0.7931331326145389,0.26148352387608503 l -8.839512873422311 26.055714038460632" fill="#b9ff1f" stroke="none" /><path d="M 108.43124777332544 80.76684994638697 l 5.901192911419181 -13.46165262984281 a35.69830498065467,35.69830498065467 0 0,0 0.5606637772879196,0.25155349391225446 l -6.132038807173881 13.358078805414024" fill="#ffa20f" stroke="none" /><line stroke="#e1ed5e" stroke-width="0.3" x1="143.23703022742887" x2="145.7803849466894" y1="26.81831364943548" y2="22.513508569990506" /><path d="M 143.74570117128098 25.957352633546492 a86.0,86.0 0 0,1 28.547481713284135,27.462654790039103" fill="none" id="id38" stroke="none" /><text fill="#e1ed5e" style="font-size:6.75px; font-family:Arial;" text-anchor="middle"><textPath startOffset="19.985693538727396" xlink:href="#id38">February</textPath></text><line stroke="#e1ed5e" stroke-width="0.3" x1="172.23445277983987" x2="176.4835382374775" y1="55.19839476539836" y2="52.563006222186495" /><path d="M 173.08426987136738 54.67131705675599 a86.0,86.0 0 0,1 12.851231095245387,41.99856678651699" fill="none" id="id39" stroke="none" /><text fill="#e1ed5e" style="font-size:6.75px; font-family:Arial;" text-anchor="middle"><textPath startOffset="22.20632615414155" xlink:href="#id39">March</textPath></text><line stroke="#e1ed5e" stroke-width="0.3" x1="184.98032266829074" x2="189.97916517819016" y1="98.17113171792111" y2="98.06355123074" /><path d="M 185.9800911702706 98.14961562048488 a86.0,86.0 0 0,1 -9.607161424134198,41.387399972396054" fill="none" id="id40" stroke="none" /><text fill="#e1ed5e" style="font-size:6.75px; font-family:Arial;" text-anchor="middle"><textPath startOffset="21.466115282336823" xlink:href="#id40">April</textPath></text><path d="M 120.49622156327973 104.57218783832717 l 37.77597796918776 8.426863776739804 a59.704477061966465,59.704477061966465 0 0,0 -0.23239096030749662,1.0011341747681932 l -37.62532644294971 -9.075866608856561" fill="#3dff2e" stroke="none" /><path d="M 120.41448212921028 104.9243191809786 l 6.803991556545123 1.6412381130731974 a27.999140207578456,27.999140207578456 0 0,0 -0.11704798665198236,0.4675485234098467 l -6.77473225559808 -1.7581144758804401" fill="#ff3505" stroke="none" /><line stroke="#e1ed5e" stroke-width="0.3" x1="174.80103733775053" x2="179.2010983576182" y1="140.37084112569926" y2="142.7455964860345" /><path d="M 175.68104954172406 140.8457921977663 a86.0,86.0 0 0,1 -30.038265399797805,32.042727171017184" fill="none" id="id41" stroke="none" /><text fill="#e1ed5e" style="font-size:6.75px; font-family:Arial;" text-anchor="middle"><textPath startOffset="22.206326154141568" xlink:href="#id41">May</textPath></text><path d="M 118.48025628344425 109.97397251340804 l 24.734109516570925 13.349237406567218 a49.10655284652705,49.10655284652705 0 0,0 -0.40787339366430675,0.7404086843365072 l -24.50065971345511 -13.77301660930153" fill="#b2ff20" stroke="none" /><path d="M 116.0416608686014 113.55231037782055 l 7.322972234978356 6.186590866712514 a30.586439845237365,30.586439845237365 0 0,0 -0.34323445976633216,0.39925921984275675 l -7.215395265641245 -6.311727185716799" fill="#ff5b08" stroke="none" /><path d="M 114.29624159901734 115.38237550388516 l 5.381362662944171 5.790203014594018 a28.90477798931401,28.90477798931401 0 0,0 -0.36736658418610396,0.3355806644763657 l -5.280896529291202 -5.881976445656967" fill="#ff4206" stroke="none" /><line stroke="#e1ed5e" stroke-width="0.3" x1="143.8653032363475" x2="146.44561519142675" y1="172.8068346515853" y2="177.08958963109032" /><path d="M 144.38136562736335 173.6633856474863 a86.0,86.0 0 0,1 -40.68145358897372,12.25698825130547" fill="none" id="id42" stroke="none" /><text fill="#e1ed5e" style="font-size:6.75px; font-family:Arial;" text-anchor="middle"><textPath startOffset="21.466115282336833" xlink:href="#id42">June</textPath></text><path d="M 106.57524785965236 119.94407469862006 l 3.3609443957776852 10.194433353397962 a31.734170607381934,31.734170607381934 0 0,0 -0.5202570272078128,0.16656987093652004 l -3.1849660234789323 -10.250776070994188" fill="#ff6b09" stroke="none" /><line stroke="#e1ed5e" stroke-width="0.3" x1="102.19456741930631" x2="102.32365962044197" y1="184.97166512339345" y2="189.96999836594603" /><path d="M 102.22038585953345 185.97133177190398 a86.0,86.0 0 0,1 -42.740103519485714,-10.115201625700543" fill="none" id="id43" stroke="none" /><text fill="#e1ed5e" style="font-size:6.75px; font-family:Arial;" text-anchor="middle"><textPath startOffset="22.20632615414155" xlink:href="#id43">July</textPath></text><path d="M 100.54218724476979 120.99299961872073 l 0.260692832685832 10.093790641461041 a31.097156543634462,31.097156543634462 0 0,0 -0.5352269478374996,0.00921441729268068 l -0.08690619495566454 -10.096782536032881" fill="#ff6209" stroke="none" /><line stroke="#e1ed5e" stroke-width="0.3" x1="58.666819895761336" x2="56.23545636021788" y1="174.27360380694188" y2="178.64263932499728" /><path d="M 58.180547188652646 175.14741091055294 a86.0,86.0 0 0,1 -31.652253787137756,-30.449443065178592" fill="none" id="id44" stroke="none" /><text fill="#e1ed5e" style="font-size:6.75px; font-family:Arial;" text-anchor="middle"><textPath startOffset="22.20632615414155" xlink:href="#id44">August</textPath></text><path d="M 87.95078237400918 117.19931262002967 l -5.139213683750307 7.3358242428364635 a29.95688755143401,29.95688755143401 0 0,0 -0.4197853975757572,-0.2995057351767165 l 5.264726409174951 -7.246274245815528" fill="#ff5107" stroke="none" /><path d="M 87.07902340077011 116.55440617244103 l -8.655096580580988 11.08894387017023 a35.066818153902844,35.066818153902844 0 0,0 -0.4726381015573869,-0.37549229269342677 l 8.844692174855732 -10.938317663471672" fill="#ff990e" stroke="none" /><path d="M 84.19399662182784 113.82643327865904 l -3.7867928624019473 3.312528638606272 a26.031167475280967,26.031167475280967 0 0,0 -0.29211617143654667,-0.33979710193028767 l 3.8432515434092727 -3.246854437514454" fill="#ff1802" stroke="none" /><path d="M 83.95833913139862 113.55231037782056 l -4.575802098511179 3.8657275437036973 a26.990143094024443,26.990143094024443 0 0,0 -0.29676819065981375,-0.3574764033567457 l 4.6416662890645295 -3.7863898832331904" fill="#ff2603" stroke="none" /><path d="M 83.72743513129214 113.27417163493432 l -9.859605887650288 8.042868586571595 a33.7239759258122,33.7239759258122 0 0,0 -0.36306604243424884,-0.452980711892784 l 9.996589842139397 -7.871960041100551" fill="#ff870c" stroke="none" /><path d="M 82.85270091963577 112.12312394758628 l -8.378980209241071 5.923930944163848 a31.261591844254745,31.261591844254745 0 0,0 -0.30686838968772895,-0.4420668026711748 l 8.479709506090934 -5.77882287930566" fill="#ff6409" stroke="none" /><path d="M 82.44556493220864 111.52570212397912 l -27.526939277195503 18.073341652328875 a53.92989621077197,53.92989621077197 0 0,0 -0.5028195903166593,-0.7803871703300826 l 27.833963730889206 -17.596832882077344" fill="#7bff26" stroke="none" /><path d="M 82.05923443525364 110.91462005526583 l -2.961428077643821 1.801643423288082 a24.46640668181539,24.46640668181539 0 0,0 -0.21579268668651308,-0.3616809552587443 l 2.992001640028566 -1.7504003741432266" fill="#ff0000" stroke="none" /><line stroke="#e1ed5e" stroke-width="0.3" x1="26.63291911575756" x2="22.317208475507996" y1="142.92168965132927" y2="145.44649492493687" /><path d="M 25.769776987707644 143.4266507060508 a86.0,86.0 0 0,1 -11.730757126820373,-40.83630448921669" fill="none" id="id45" stroke="none" /><text fill="#e1ed5e" style="font-size:6.75px; font-family:Arial;" text-anchor="middle"><textPath startOffset="21.46611528233685" xlink:href="#id45">September</textPath></text><path d="M 81.69416730710424 110.29060199501025 l -4.656238332989127 2.617498820323888 a26.341521832586132,26.341521832586132 0 0,0 -0.21878965802623526,-0.3971667810697232 l 4.7006044004668786 -2.536961520856342" fill="#ff1c02" stroke="none" /><path d="M 81.51974371655577 109.97397251340807 l -12.580829140943276 6.789994798939289 a35.29619848922189,35.29619848922189 0 0,0 -0.2839621049500287,-0.5371492886521463 l 12.695843754118192 -6.572430495201017" fill="#ff9d0e" stroke="none" /><path d="M 80.58989483394504 108.01547362559985 l -54.19234062781371 22.378924446603076 a79.63127187864644,79.63127187864644 0 0,0 -0.5122846025792537,-1.2714483714472185 l 54.56952784465035 -21.44277670731305" fill="#47fcff" stroke="none" /><path d="M 79.97269907076064 106.31721596034903 l -18.479846184292295 5.829101967992462 a40.3773874593134,40.3773874593134 0 0,0 -0.20337364711152736,-0.6646368458809447 l 18.577446603909955 -5.510138149559469" fill="#ffe015" stroke="none" /><path d="M 79.18660465613746 102.79330883721812 l -28.019226143397834 3.760383671443854 a49.270435423447765,49.270435423447765 0 0,0 -0.10557596346694195,-0.8415443059485456 l 28.079803616111622 -3.2775216112078995" fill="#b0ff20" stroke="none" /><path d="M 79.1416061653843 102.43462659150553 l -27.54837490697831 3.2154923640374755 a48.73539888226985,48.73539888226985 0 0,0 -0.09008552476371066,-0.8340800767952411 l 27.599642733243073 -2.7408159653574526" fill="#b6ff1f" stroke="none" /><path d="M 79.10278846688536 102.07522291339032 l -25.274990434753622 2.5099635519698493 a46.39931216606277,46.39931216606277 0 0,0 -0.07208553770875276,-0.7954579018251209 l 25.314450568739453 -2.0745242615961623" fill="#d2ff1c" stroke="none" /><path d="M 79.0235259727143 100.99374915477108 l -8.998751112134386 0.4263109853470443 a30.008843579193027,30.008843579193027 0 0,0 -0.02000284789098276,-0.5161846234096406 l 9.004756092876569 -0.27134911492340696" fill="#ff5207" stroke="none" /><line stroke="#e1ed5e" stroke-width="0.3" x1="15.007084014347285" x2="10.007500721073583" y1="101.09737516637583" y2="101.16192664675087" /><path d="M 14.007167355692545 101.11028546245083 a86.0,86.0 0 0,1 10.666146001902534,-42.60595125391555" fill="none" id="id46" stroke="none" /><text fill="#e1ed5e" style="font-size:6.75px; font-family:Arial;" text-anchor="middle"><textPath startOffset="22.20632615414155" xlink:href="#id46">October</textPath></text><path d="M 79.00175016825051 100.2711162175752 l -28.06856270115578 0.36240365808028835 a49.070902167905174,49.070902167905174 0 0,0 -0.003635225500435359,-0.8446983823663066 l 28.07064222394572 0.12080420248969362" fill="#b2ff20" stroke="none" /><path d="M 79.00019446554 99.90962569577889 l -62.99941660337998 -0.27112291266336075 a84.0,84.0 0 0,0 0.018667971529137795,-1.445854967758112 l 62.98541562473312 1.3555141384819447" fill="#4dd2ff" stroke="none" /><path d="M 79.01574976396665 99.18683210126434 l -19.001644443911477 -0.7363392597389415 a40.01590615979856,40.01590615979856 0 0,0 0.0325965603648125,-0.6880618701294846 l 18.98615427531317 1.0633122364914351" fill="#ffdc14" stroke="none" /><path d="M 79.12142395522702 97.74499172005258 l -13.892337539586867 -1.5004536761708755 a34.97313148682675,34.97313148682675 0 0,0 0.0697957902367609,-0.5979677071777658 l 13.864451396346517 1.7393651216735033" fill="#ff980e" stroke="none" /><path d="M 79.26566170972629 96.67025291283419 l -13.694038937660792 -2.199138724653715 a34.86949579315851,34.86949579315851 0 0,0 0.1002716162227265,-0.5918087549972925 l 13.654155459917844 2.434533267966835" fill="#ff970d" stroke="none" /><path d="M 79.32604984820605 96.31383870115002 l -13.69904717575267 -2.4425374521858316 a34.91509549837254,34.91509549837254 0 0,0 0.1105882048424904,-0.5907666122885525 l 13.654973247000317 2.677982141936957" fill="#ff970e" stroke="none" /><path d="M 79.54389044137918 95.25157060432595 l -11.921708159300985 -2.7673585394156737 a33.23868451759504,33.23868451759504 0 0,0 0.13416905759860678,-0.556217362842717 l 11.872306301441563 2.972161133917788" fill="#ff800b" stroke="none" /><path d="M 79.62865764111835 94.90015583598534 l -21.658882829252878 -5.422172248147635 a43.32727384388626,43.32727384388626 0 0,0 0.18734644738497908,-0.7219222851999534 l 21.56234004999759 5.7941909588964515" fill="#f8ff18" stroke="none" /><path d="M 80.14247586403 93.16781622104843 l -55.31399141651975 -19.03134309782634 a79.49640729595282,79.49640729595282 0 0,0 0.4563355707721758,-1.2901221093817903 l 54.97820276493776 19.98066283363474" fill="#47feff" stroke="none" /><path d="M 80.65960295795068 91.81776055985345 l -18.884973544616766 -7.989565830884003 a41.50549653012344,41.50549653012344 0 0,0 0.28403454495100555,-0.6555908906380895 l 18.74464828982308 8.313455866108692" fill="#ffef16" stroke="none" /><path d="M 81.10775173730289 90.83032412892265 l -19.505271312149087 -9.467217094695133 a42.681416200945776,42.681416200945776 0 0,0 0.326492483126187,-0.6581889231410176 l 19.339418816069486 9.801565606335114" fill="#fffe18" stroke="none" /><path d="M 81.43458229118936 90.18545643968196 l -18.355463212652 -9.70355184547741 a41.76251305042068,41.76251305042068 0 0,0 0.3414421546209573,-0.6326404564364096 l 18.185712958812573 10.018073285246292" fill="#fff216" stroke="none" /><line stroke="#e1ed5e" stroke-width="0.3" x1="26.266209847984243" x2="21.928928074336255" y1="57.711370442889674" y2="55.22380399835377" /><path d="M 25.398753493254645 57.213857153982495 a86.0,86.0 0 0,1 29.58750427330803,-30.492523968695096" fill="none" id="id47" stroke="none" /><text fill="#e1ed5e" style="font-size:6.75px; font-family:Arial;" text-anchor="middle"><textPath startOffset="21.46611528233685" xlink:href="#id47">November</textPath></text><path d="M 82.34701348167596 88.62581576622439 l -7.536758608375107 -4.856089412869006 a29.965731130627034,29.965731130627034 0 0,0 0.28310961334649126,-0.4311953641608367 l 7.452052359670695 4.98510284100751" fill="#ff5207" stroke="none" /><path d="M 82.7489923806493 88.02491185347247 l -16.588927686459705 -11.515493801005158 a41.19403672541915,41.19403672541915 0 0,0 0.4093655049490738,-0.5790184755096618 l 16.38824956170675 11.799338776846607" fill="#ffeb16" stroke="none" /><path d="M 84.07557802195018 86.31012108654704 l -19.800290013205302 -17.0218782889367 a47.11122029110115,47.11122029110115 0 0,0 0.5339454164789842,-0.6103919128335655 l 19.504352733148476 17.36018575797321" fill="#c9ff1d" stroke="none" /><path d="M 84.31358615837235 86.03803664274999 l -6.313801870656275 -5.619708319125449 a29.452527175581896,29.452527175581896 0 0,0 0.34032585805160487,-0.37579631259832497 l 6.216132371988625 5.72755741899333" fill="#ff4a06" stroke="none" /><path d="M 85.83668400450813 84.49514656593479 l -15.387093796893875 -16.844546444702 a43.81449978505189,43.81449978505189 0 0,0 0.561219953626554,-0.5038688156365835 l 15.09486285567135 17.106914269107865" fill="#f2ff19" stroke="none" /><path d="M 86.65592168130627 83.78471172551755 l -10.18638992841985 -12.378168444516573 a37.030645458453606,37.030645458453606 0 0,0 0.49567564701591543,-0.40080190128952764 l 9.971810882839433 12.551676443070235" fill="#ffb410" stroke="none" /><line stroke="#e1ed5e" stroke-width="0.3" x1="56.762969772571076" x2="54.21961505331055" y1="26.818313649435495" y2="22.513508569990535" /><path d="M 56.25429882871897 25.957352633546506 a86.0,86.0 0 0,1 42.265352541879196,-11.944610805530505" fill="none" id="id48" stroke="none" /><text fill="#e1ed5e" style="font-size:6.75px; font-family:Arial;" text-anchor="middle"><textPath startOffset="22.20632615414155" xlink:href="#id48">December</textPath></text><path d="M 89.63071344664047 81.73862282372117 l -12.332910890845499 -21.71952103939102 a45.97675489774612,45.97675489774612 0 0,0 0.6915690159446116,-0.3848574086272923 l 11.957217785828842 21.928593845578497" fill="#d7ff1c" stroke="none" /><path d="M 90.26544431104013 81.39251694778311 l -7.730909960804803 -14.777538972532255 a37.677608548793216,37.677608548793216 0 0,0 0.5772559715861979,-0.2956929293900274 l 7.475393501629841 14.908424427234788" fill="#ffbd11" stroke="none" /></svg>