<?xml version="1.0" encoding="utf-8" ?>
<svg baseProfile="full" height="200mm" version="1.1" viewBox="0,0,200,200" width="200mm" xmlns="http://www.w3.org/2000/svg" xmlns:ev="http://www.w3.org/2001/xml-events" xmlns:xlink="http://www.w3.org/1999/xlink"><defs /><rect fill="#1a1a1a" height="200" width="200" x="0" y="0" /><rect fill="#1a1a1a" height="200" width="180" x="10" y="0" /><text alignment-baseline="middle" fill="#e1ed5e" style="dominant-baseline: central; font-size:9.0px; font-family:Arial;" text-anchor="middle" x="100.0" y="100.0">2023</text><line stroke="#e1ed5e" stroke-width="0.3" x1="100.0" x2="100.0" y1="15.0" y2="10.0" /><path d="M 100.0 14.0 a86.0,86.0 0 0,1 42.46469731375804,11.215312516191453" fill="none" id="id37" stroke="none" /><text fill="#e1ed5e" style="font-size:6.75px; font-family:Arial;" text-anchor="middle"><textPath startOffset="22.20632615414155" xlink:href="#id37">January</textPath></text><path d="M 105.36241919743992 79.69619591428918 l 1.7243500998475942 -6.528931311299945 a27.7528014434394,27.7528014434394 0 0,0 0.460831449680122,0.12596264320644002 l -1.8364794387514272 6.498282127267211" fill="#ff4706" stroke="none" /><path d="M 106.40334571778207 80.00007090966166 l 4.570569821481904 -14.27551726251953 a35.98934627011913,35.98934627011913 0 0,0 0.5883695614665562,0.19397619384093012 l -4.815622205190877 14.194727344419363" fill="#ffb711" stroke="none" /><path d="M 108.43124777332544 80.76684994638697 l 3.2148734922700455 -7.333688434093433 a29.007396432028102,29.007396432028102 0 0,0 0.4555789542859898,0.20440499698035566 l -3.3406345650228153 7.277263106596545" fill="#ff5808" stroke="none" /><line stroke="#e1ed5e" stroke-width="0.3" x1="143.23703022742887" x2="145.7803849466894" y1="26.81831364943548" y2="22.513508569990506" /><path d="M 143.74570117128098 25.957352633546492 a86.0,86.0 0 0,1 28.547481713284135,27.462654790039103" fill="none" id="id38" stroke="none" /><text fill="#e1ed5e" style="font-size:6.75px; font-family:Arial;" text-anchor="middle"><textPath startOffset="19.985693538727396" xlink:href="#id38">February</textPath></text><line stroke="#e1ed5e" stroke-width="0.3" x1="172.23445277983987" x2="176.4835382374775" y1="55.19839476539836" y2="52.563006222186495" /><path d="M 173.08426987136738 54.67131705675599 a86.0,86.0 0 0,1 12.851231095245387,41.99856678651699" fill="none" id="id39" stroke="none" /><text fill="#e1ed5e" style="font-size:6.75px; font-family:Arial;" text-anchor="middle"><textPath startOffset="22.20632615414155" xlink:href="#id39">March</textPath></text><line stroke="#e1ed5e" stroke-width="0.3" x1="184.98032266829074" x2="189.97916517819016" y1="98.17113171792111" y2="98.06355123074" /><path d="M 185.9800911702706 98.14961562048488 a86.0,86.0 0 0,1 -9.607161424134198,41.387399972396054" fill="none" id="id40" stroke="none" /><text fill="#e1ed5e" style="font-size:6.75px; font-family:Arial;" text-anchor="middle"><textPath startOffset="21.466115282336823" xlink:href="#id40">April</textPath></text><path d="M 120.49622156327973 104.57218783832717 l 20.579735663735928 4.59081771863246 a42.08556680089379,42.08556680089379 0 0,0 -0.16381192441890344,0.7056974830402567 l -20.497663173386474 -4.944383859021281" fill="#faff18" stroke="none" /><path d="M 120.41448212921028 104.9243191809786 l 3.70670344540654 0.8941197116285111 a24.813017242409398,24.813017242409398 0 0,0 -0.10372867486119591,0.41434449368882725 l -3.6907634562502833 -0.9577920447147343" fill="#ff1c02" stroke="none" /><line stroke="#e1ed5e" stroke-width="0.3" x1="174.80103733775053" x2="179.2010983576182" y1="140.37084112569926" y2="142.7455964860345" /><path d="M 175.68104954172406 140.8457921977663 a86.0,86.0 0 0,1 -30.038265399797805,32.042727171017184" fill="none" id="id41" stroke="none" /><text fill="#e1ed5e" style="font-size:6.75px; font-family:Arial;" text-anchor="middle"><textPath startOffset="22.206326154141568" xlink:href="#id41">May</textPath></text><path d="M 118.48025628344425 109.97397251340804 l 13.474738791517503 7.272446456943866 a36.311990823166724,36.311990823166724 0 0,0 -0.3016032294924083,0.5474974681087115 l -13.347559152573584 -7.503314443450383" fill="#ffbb11" stroke="none" /><path d="M 116.0416608686014 113.55231037782055 l 3.989435640598252 3.3703536358601913 a26.222535817132478,26.222535817132478 0 0,0 -0.2942636658740861,0.3422951231206232 l -3.9308294651533875 -3.4385258581423424" fill="#ff3104" stroke="none" /><path d="M 114.29624159901734 115.38237550388516 l 2.931678465198723 3.1544080096855796 a25.306393910788756,25.306393910788756 0 0,0 -0.3216327588646919,0.2938038993837881 l -2.876946156867167 -3.2044046756559506" fill="#ff2303" stroke="none" /><line stroke="#e1ed5e" stroke-width="0.3" x1="143.8653032363475" x2="146.44561519142675" y1="172.8068346515853" y2="177.08958963109032" /><path d="M 144.38136562736335 173.6633856474863 a86.0,86.0 0 0,1 -40.68145358897372,12.25698825130547" fill="none" id="id42" stroke="none" /><text fill="#e1ed5e" style="font-size:6.75px; font-family:Arial;" text-anchor="middle"><textPath startOffset="21.466115282336833" xlink:href="#id42">June</textPath></text><path d="M 106.57524785965236 119.94407469862006 l 1.830987600163158 5.553760747785984 a26.84780078624431,26.84780078624431 0 0,0 -0.4401487972359326,0.1409217454340477 l -1.7351174578362851 -5.584455339879738" fill="#ff3a05" stroke="none" /><line stroke="#e1ed5e" stroke-width="0.3" x1="102.19456741930631" x2="102.32365962044197" y1="184.97166512339345" y2="189.96999836594603" /><path d="M 102.22038585953345 185.97133177190398 a86.0,86.0 0 0,1 -42.740103519485714,-10.115201625700543" fill="none" id="id43" stroke="none" /><text fill="#e1ed5e" style="font-size:6.75px; font-family:Arial;" text-anchor="middle"><textPath startOffset="22.20632615414155" xlink:href="#id43">July</textPath></text><path d="M 100.54218724476979 120.99299961872073 l 0.1420211963931404 5.498932242490032 a26.500765931006462,26.500765931006462 0 0,0 -0.45611643124689505,0.007852458005969492 l -0.04734507525357741 -5.500562177775161" fill="#ff3505" stroke="none" /><line stroke="#e1ed5e" stroke-width="0.3" x1="58.666819895761336" x2="56.23545636021788" y1="174.27360380694188" y2="178.64263932499728" /><path d="M 58.180547188652646 175.14741091055294 a86.0,86.0 0 0,1 -31.652253787137756,-30.449443065178592" fill="none" id="id44" stroke="none" /><text fill="#e1ed5e" style="font-size:6.75px; font-family:Arial;" text-anchor="middle"><textPath startOffset="22.20632615414155" xlink:href="#id44">August</textPath></text><path d="M 87.95078237400918 117.19931262002967 l -2.7997596572430967 3.996437204520274 a25.879566012259676,25.879566012259676 0 0,0 -0.36264995450184667,-0.2587411135835826 l 2.8681369395938305 -3.947651829092472" fill="#ff2c04" stroke="none" /><path d="M 87.07902340077011 116.55440617244103 l -4.715155221599979 6.041075463995855 a28.66337272520881,28.66337272520881 0 0,0 -0.3863310896819045,-0.30692478267284745 l 4.818443803999242 -5.959016767317878" fill="#ff5307" stroke="none" /><path d="M 84.19399662182784 113.82643327865904 l -2.062982887832028 1.8046114866086658 a23.7408978479848,23.7408978479848 0 0,0 -0.2664152574948856,-0.30990113269520836 l 2.0937406548976925 -1.768833254751927" fill="#ff0d01" stroke="none" /><path d="M 83.95833913139862 113.55231037782056 l -2.4928222298768183 2.1059852126749803 a24.26333209860316,24.26333209860316 0 0,0 -0.2667857351180489,-0.321360604196991 l 2.5287039648884035 -2.062763351364228" fill="#ff1402" stroke="none" /><path d="M 83.72743513129214 113.27417163493432 l -5.3713522144141645 4.381623412233469 a27.931814216922177,27.931814216922177 0 0,0 -0.30070870848845166,-0.3751803499169908 l 5.445978834957477 -4.288515228738219" fill="#ff4906" stroke="none" /><path d="M 82.85270091963577 112.12312394758628 l -4.564731533317431 3.2272608010454866 a26.590347596458315,26.590347596458315 0 0,0 -0.2610147681798786,-0.3760112409644222 l 4.619607208659444 -3.148208297894052" fill="#ff3605" stroke="none" /><path d="M 82.44556493220864 111.52570212397912 l -14.996226819553442 9.846061273878753 a38.93966949061406,38.93966949061406 0 0,0 -0.36305704323654603,-0.5634725935426378 l 15.163488726167035 -9.586467080414668" fill="#ffdd14" stroke="none" /><path d="M 82.05923443525364 110.91462005526583 l -1.6133376368121046 0.9815059041441481 a22.8884417306934,22.8884417306934 0 0,0 -0.20187510161862274,-0.3383542821469626 l 1.6299936141289593 -0.9535895281110743" fill="#ff0000" stroke="none" /><line stroke="#e1ed5e" stroke-width="0.3" x1="26.63291911575756" x2="22.317208475507996" y1="142.92168965132927" y2="145.44649492493687" /><path d="M 25.769776987707644 143.4266507060508 a86.0,86.0 0 0,1 -11.730757126820373,-40.83630448921669" fill="none" id="id45" stroke="none" /><text fill="#e1ed5e" style="font-size:6.75px; font-family:Arial;" text-anchor="middle"><textPath startOffset="21.46611528233685" xlink:href="#id45">September</textPath></text><path d="M 81.69416730710424 110.29060199501025 l -2.5366425763597773 1.425970596084728 a23.90997383168636,23.90997383168636 0 0,0 -0.19859349931633408,-0.36050488664040387 l 2.560812485127628 -1.3820951910465014" fill="#ff0f01" stroke="none" /><path d="M 81.51974371655577 109.97397251340807 l -6.853830187068102 3.699078240523363 a28.78833538457862,28.78833538457862 0 0,0 -0.2316055740764437,-0.4381104633131475 l 6.916488269369432 -3.580552762124089" fill="#ff5507" stroke="none" /><path d="M 80.58989483394504 108.01547362559985 l -29.523101851372747 12.191672441292239 a52.941359079448915,52.941359079448915 0 0,0 -0.34058281949021213,-0.8452986269809646 l 29.728587285120348 -11.681674446468469" fill="#7dff26" stroke="none" /><path d="M 79.97269907076064 106.31721596034903 l -10.067518301959973 3.175599524017488 a31.556484125751297,31.556484125751297 0 0,0 -0.15894434163522753,-0.5194393049219855 l 10.120689416101332 -3.001833246543455" fill="#ff7c0b" stroke="none" /><path d="M 79.18660465613746 102.79330883721812 l -30.09176918189008 4.038534001521662 a51.361560061656846,51.361560061656846 0 0,0 -0.11005679454771049,-0.8772609383912963 l 30.156827485684637 -3.5199553088429574" fill="#8eff24" stroke="none" /><path d="M 79.1416061653843 102.43462659150553 l -29.9847044255192 3.4998648175705838 a51.18826847016932,51.18826847016932 0 0,0 -0.09461956057896403,-0.8760596173584806 l 30.040506287599218 -2.983208878327321" fill="#90ff24" stroke="none" /><path d="M 79.10278846688536 102.07522291339032 l -23.675083163359883 2.351082821704245 a44.79153532722341,44.79153532722341 0 0,0 -0.06958771063906219,-0.7678945882516579 l 23.71204547027602 -1.943206844904021" fill="#d9ff1c" stroke="none" /><path d="M 79.0235259727143 100.99374915477108 l -4.902372596217852 0.232247260313023 a25.907870807394044,25.907870807394044 0 0,0 -0.017269282555721584,-0.44564344843107534 l 4.905644011624774 -0.14782656486795087" fill="#ff2c04" stroke="none" /><line stroke="#e1ed5e" stroke-width="0.3" x1="15.007084014347285" x2="10.007500721073583" y1="101.09737516637583" y2="101.16192664675087" /><path d="M 14.007167355692545 101.11028546245083 a86.0,86.0 0 0,1 10.666146001902534,-42.60595125391555" fill="none" id="id46" stroke="none" /><text fill="#e1ed5e" style="font-size:6.75px; font-family:Arial;" text-anchor="middle"><textPath startOffset="22.20632615414155" xlink:href="#id46">October</textPath></text><path d="M 79.00175016825051 100.2711162175752 l -30.56617943401586 0.3946513171466986 a51.568727072853065,51.568727072853065 0 0,0 -0.003820267070672231,-0.8876955265684717 l 30.56844399837604 0.13155368762544845" fill="#8cff24" stroke="none" /><path d="M 79.00019446554 99.90962569577889 l -34.321052964522714 -0.1477033335720705 a55.32137078947054,55.32137078947054 0 0,0 0.012294497319651326,-0.9522223664183869 l 34.31342546008535 0.7384619580509293" fill="#63ff29" stroke="none" /><path d="M 79.01574976396665 99.18683210126434 l -15.195045404458925 -0.5888284310258203 a36.20645007109656,36.20645007109656 0 0,0 0.029493415209068705,-0.6225593804419777 l 15.182658381016358 0.850298918090807" fill="#ffba11" stroke="none" /><path d="M 79.12142395522702 97.74499172005258 l -15.104903454537938 -1.6314178842822442 a36.19274934579216,36.19274934579216 0 0,0 0.07222977851960656,-0.6188206323735923 l 15.074583323014743 1.8911822549806983" fill="#ffb911" stroke="none" /><path d="M 79.26566170972629 96.67025291283419 l -14.88430611665949 -2.3902848618843935 a36.07501344262687,36.07501344262687 0 0,0 0.10373823368729368,-0.6122689275071317 l 14.840956021451973 2.646139577707353" fill="#ffb811" stroke="none" /><path d="M 79.32604984820605 96.31383870115002 l -7.463017104467566 -1.3306545010101367 a28.580716701119623,28.580716701119623 0 0,0 0.09052503245296666,-0.48358834313044674 l 7.439006348104738 1.4589209216031562" fill="#ff5207" stroke="none" /><path d="M 79.54389044137918 95.25157060432595 l -6.494751844114689 -1.507611722836396 a27.66743538577352,27.66743538577352 0 0,0 0.11168052483889834,-0.4629878760319147 l 6.467838519014975 1.6191848305277077" fill="#ff4506" stroke="none" /><path d="M 79.62865764111835 94.90015583598534 l -23.562736632906017 -5.8987907025748365 a45.28988039049337,45.28988039049337 0 0,0 0.19583272707675406,-0.7546233826237166 l 23.457707573958956 6.303510510747417" fill="#d3ff1c" stroke="none" /><path d="M 80.14247586403 93.16781622104843 l -59.572572407909995 -20.496551336854708 a84.0,84.0 0 0,0 0.4821876767607618,-1.3632094942935558 l 59.210931650339425 21.518958457574875" fill="#4dd2ff" stroke="none" /><path d="M 80.65960295795068 91.81776055985345 l -20.512112334173725 -8.677950828852719 a43.2722603926442,43.2722603926442 0 0,0 0.2961250392633133,-0.6834974184719762 l 20.35969658506773 9.029747391911293" fill="#ecff1a" stroke="none" /><path d="M 81.10775173730289 90.83032412892265 l -14.92128454835234 -7.242300703758183 a37.586007719055075,37.586007719055075 0 0,0 0.28751503776771115,-0.5796127717342859 l 14.794409497631214 7.49807306399143" fill="#ffcc13" stroke="none" /><path d="M 81.43458229118936 90.18545643968196 l -19.976619279062735 -10.56057036676342 a43.59625996248013,43.59625996248013 0 0,0 0.35643451142494514,-0.6604190166498128 l 19.79187666841932 10.902870366745706" fill="#e8ff1a" stroke="none" /><line stroke="#e1ed5e" stroke-width="0.3" x1="26.266209847984243" x2="21.928928074336255" y1="57.711370442889674" y2="55.22380399835377" /><path d="M 25.398753493254645 57.213857153982495 a86.0,86.0 0 0,1 29.58750427330803,-30.492523968695096" fill="none" id="id47" stroke="none" /><text fill="#e1ed5e" style="font-size:6.75px; font-family:Arial;" text-anchor="middle"><textPath startOffset="21.46611528233685" xlink:href="#id47">November</textPath></text><path d="M 82.34701348167596 88.62581576622439 l -8.205857545593158 -5.2872036934266795 a30.76169150067512,30.76169150067512 0 0,0 0.2906296712293148,-0.44264892823789304 l 8.113631239005922 5.427670685642239" fill="#ff710a" stroke="none" /><path d="M 82.7489923806493 88.02491185347247 l -9.037376795661858 -6.273452897907102 a32.001381304592,32.001381304592 0 0,0 0.3180135441482121,-0.44980760542349385 l 8.928050631709768 6.428087003662383" fill="#ff820b" stroke="none" /><path d="M 84.07557802195018 86.31012108654704 l -21.54988782611903 -18.52596944144736 a49.41846598716677,49.41846598716677 0 0,0 0.5600950949736804,-0.6402855157820021 l 21.227800867567503 18.894170513432304" fill="#a4ff21" stroke="none" /><path d="M 84.31358615837235 86.03803664274999 l -6.868066006104991 -6.113040678420762 a30.194541696041295,30.194541696041295 0 0,0 0.34889988386801957,-0.3852639660536875 l 6.761822481620926 6.230357431744006" fill="#ff6909" stroke="none" /><path d="M 85.83668400450813 84.49514656593479 l -16.758572848732655 -18.34593084461368 a45.84799674987155,45.84799674987155 0 0,0 0.5872670174500505,-0.5272541267160411 l 16.440294843686633 18.631683980098998" fill="#cdff1d" stroke="none" /><path d="M 86.65592168130627 83.78471172551755 l -11.63335628495853 -14.13647471598704 a39.30778238478175,39.30778238478175 0 0,0 0.5261563827775403,-0.4254485364823409 l 11.38829650361649 14.334629349733515" fill="#ffe115" stroke="none" /><line stroke="#e1ed5e" stroke-width="0.3" x1="56.762969772571076" x2="54.21961505331055" y1="26.818313649435495" y2="22.513508569990535" /><path d="M 56.25429882871897 25.957352633546506 a86.0,86.0 0 0,1 42.265352541879196,-11.944610805530505" fill="none" id="id48" stroke="none" /><text fill="#e1ed5e" style="font-size:6.75px; font-family:Arial;" text-anchor="middle"><textPath startOffset="22.20632615414155" xlink:href="#id48">December</textPath></text><path d="M 89.63071344664047 81.73862282372117 l -13.416126376024899 -23.627174611915553 a48.17049552509887,48.17049552509887 0 0,0 0.7245666263734075,-0.40322054310516253 l 13.007435660579446 23.854610552580898" fill="#b2ff20" stroke="none" /><path d="M 90.26544431104013 81.39251694778311 l -8.411482439911099 -16.07844486648464 a39.14578259986378,39.14578259986378 0 0,0 0.5997497622207824,-0.3072151226166297 l 8.133472190101553 16.220852514413778" fill="#ffdf14" stroke="none" /></svg>